<?xml version="1.0" encoding="utf-8"?>
<!-- Generator: Adobe Illustrator 26.3.1, SVG Export Plug-In . SVG Version: 6.00 Build 0)  -->
<svg version="1.1"
	 id="svg8" xmlns:cc="http://creativecommons.org/ns#" xmlns:svg="http://www.w3.org/2000/svg" xmlns:dc="http://purl.org/dc/elements/1.1/" xmlns:rdf="http://www.w3.org/1999/02/22-rdf-syntax-ns#"
	 xmlns="http://www.w3.org/2000/svg" xmlns:xlink="http://www.w3.org/1999/xlink" x="0px" y="0px" viewBox="0 0 69.2 69.2"
	 style="enable-background:new 0 0 69.2 69.2;" xml:space="preserve">
<style type="text/css">
	.st0{fill:#FFFFFF;}
</style>
<g>
	<path class="st0" d="M49.3,21c-2.7-1.3-5.7-2.2-8.7-2.7c-0.4,0.7-0.8,1.6-1.1,2.3c-3.3-0.5-6.5-0.5-9.7,0c-0.3-0.7-0.8-1.6-1.1-2.3
		c-3.1,0.5-6,1.5-8.7,2.7c-5.5,8.3-7,16.5-6.3,24.5c3.7,2.7,7.2,4.4,10.7,5.5c0.9-1.2,1.6-2.4,2.3-3.8c-1.3-0.5-2.5-1.1-3.6-1.8
		c0.3-0.2,0.6-0.5,0.9-0.7c7,3.3,14.5,3.3,21.4,0c0.3,0.2,0.6,0.5,0.9,0.7c-1.1,0.7-2.4,1.3-3.6,1.8c0.7,1.3,1.4,2.6,2.3,3.8
		c3.5-1.1,7-2.7,10.7-5.5C56.4,36.2,54.1,28.1,49.3,21z M27.6,40.5c-2.1,0-3.8-2-3.8-4.3s1.7-4.3,3.8-4.3c2.1,0,3.8,2,3.8,4.3
		C31.4,38.6,29.7,40.5,27.6,40.5z M41.6,40.5c-2.1,0-3.8-2-3.8-4.3s1.7-4.3,3.8-4.3c2.1,0,3.8,2,3.8,4.3
		C45.4,38.6,43.8,40.5,41.6,40.5z"/>
</g>
</svg>
