<?xml version="1.0" encoding="utf-8"?>
<!-- Generator: Adobe Illustrator 26.3.1, SVG Export Plug-In . SVG Version: 6.00 Build 0)  -->
<svg version="1.1"
	 id="svg8" xmlns:cc="http://creativecommons.org/ns#" xmlns:svg="http://www.w3.org/2000/svg" xmlns:dc="http://purl.org/dc/elements/1.1/" xmlns:rdf="http://www.w3.org/1999/02/22-rdf-syntax-ns#"
	 xmlns="http://www.w3.org/2000/svg" xmlns:xlink="http://www.w3.org/1999/xlink" x="0px" y="0px" viewBox="0 0 69.2 69.2"
	 style="enable-background:new 0 0 69.2 69.2;" xml:space="preserve">
<style type="text/css">
	.st0{fill:#FFFFFF;}
</style>
<g id="Layer_3_00000000220588344174792060000001839398574602250898_">
	<path id="path5_00000071519396351442539330000012063771916602967214_" class="st0" d="M14.4,34.3c0,0,17.3-7.1,23.3-9.6
		c2.3-1,10.1-4.2,10.1-4.2s3.6-1.4,3.3,2c-0.1,1.4-0.9,6.3-1.7,11.6c-1.2,7.5-2.5,15.7-2.5,15.7s-0.2,2.3-1.9,2.7s-4.5-1.4-5-1.8
		c-0.4-0.3-7.5-4.8-10.1-7c-0.7-0.6-1.5-1.8,0.1-3.2c3.6-3.3,7.9-7.4,10.5-10c1.2-1.2,2.4-4-2.6-0.6c-7.1,4.9-14.1,9.5-14.1,9.5
		s-1.6,1-4.6,0.1s-6.5-2.1-6.5-2.1S10.3,35.9,14.4,34.3z"/>
</g>
</svg>
