<?xml version="1.0" encoding="utf-8"?>
<!-- Generator: Adobe Illustrator 26.3.1, SVG Export Plug-In . SVG Version: 6.00 Build 0)  -->
<svg version="1.1"
	 id="svg8" xmlns:cc="http://creativecommons.org/ns#" xmlns:svg="http://www.w3.org/2000/svg" xmlns:dc="http://purl.org/dc/elements/1.1/" xmlns:rdf="http://www.w3.org/1999/02/22-rdf-syntax-ns#"
	 xmlns="http://www.w3.org/2000/svg" xmlns:xlink="http://www.w3.org/1999/xlink" x="0px" y="0px" viewBox="0 0 69.2 69.2"
	 style="enable-background:new 0 0 69.2 69.2;" xml:space="preserve">
<style type="text/css">
	.st0{fill:#FFFFFF;}
</style>
<path class="st0" d="M55,21.9c-1.5,0.6-3.2,1.1-4.8,1.4c1.7-1.1,3-2.7,3.6-4.7c-1.5,0.9-3.3,1.7-5.3,2.1C47,19,44.9,18,42.5,18
	c-4.7,0-8.3,3.8-8.3,8.5c0,0.6,0.2,1.4,0.2,2c-6.9-0.5-13.1-3.8-17.2-8.9c-0.8,1.2-1.2,2.7-1.2,4.2c0,2.9,1.5,5.4,3.8,6.9
	c-1.4,0-2.7-0.5-3.8-1.1c0,0,0,0,0,0.2c0,4.1,2.9,7.4,6.6,8.2c-0.8,0.2-1.4,0.3-2.3,0.3c-0.6,0-1.1,0-1.5-0.2
	c1.1,3.3,4.2,5.7,7.9,5.9c-2.9,2.3-6.5,3.6-10.4,3.6c-0.6,0-1.4,0-2-0.2c3.6,2.4,8.2,3.8,12.8,3.8c15.4,0,23.9-12.8,23.9-23.9
	c0-0.3,0-0.8,0-1.1C52.4,25.1,53.9,23.6,55,21.9z"/>
</svg>
