<?xml version="1.0" encoding="utf-8"?>
<!-- Generator: Adobe Illustrator 26.3.1, SVG Export Plug-In . SVG Version: 6.00 Build 0)  -->
<svg version="1.1" id="레이어_1" xmlns="http://www.w3.org/2000/svg" xmlns:xlink="http://www.w3.org/1999/xlink" x="0px"
	 y="0px" viewBox="0 0 366.2 305.1" style="enable-background:new 0 0 366.2 305.1;" xml:space="preserve">
<style type="text/css">
	.st0{fill:#FFFFFF;}
</style>
<g>
	<g>
		<path class="st0" d="M266.2,82.7c-4.1,0.1-9.8-0.5-15.1-1.8c-1.8-0.4-1.1,0-3.9-2.9c-0.9-1,0-1.1,0.6-1.1c2.1-0.2,4.1-0.3,6.1-0.5
			c6.3-0.6,11.7-0.6,18.7-3.4c2.3-1,4.9-2.3,6.3-4.3c1.6-2.3,1.2-2.3,3.3-0.6c1.4,1.1,1.9,1.6,2.6,2.3c0.7,0.7,0.8,1,0.2,2.1
			c-5.3,9-8.2,24.6-8.5,29.1c-0.1,1.9-0.3,2-0.9,1.7c-0.5-0.2-1.4-1.1-1.8-1.6c-1.1-1.2-0.1-8.2-0.6-8.6c-0.2-0.2-2.9,1.8-5.7,3.6
			c-2.8,1.8-43.2,27.9-66.5,39.7c-28.1,14.1-64.7,29.8-77.7,34.4c-13.1,4.6-27.8,9.2-38,11.8c-2.2,0.5-6.7-0.7-2.2-2.4
			c16.5-6.3,60.9-27,71.7-32.7C171,138.6,212.6,120,266.2,82.7z"/>
		<path class="st0" d="M264.5,155.5c-1.1,1.1-5.2,6.2-6.3,7.3c-1.3,1.4-13.2,17.7-18.2,22.2c0,0,0,0-0.1,0c-1.1,0.7-2.3,0.9-3.6,0.5
			c-3-0.8-5.8-2.2-8.3-4.2c-1.8-1.5-1.9-2.4-0.9-4.6c1-2.1,5-28.2,5.8-32c0.1-0.3,0.2-1,0-1.1c-0.2-0.1-1,0.3-1.3,0.5
			c-9.2,8.2-16.4,16.7-19.3,20c-2.8,3.2-5.5,6.5-8.1,9.8c-2.1,2.7-4.1,5.5-6.2,8.2c-2.1,2.8-4.3,5.6-6.4,8.4c-0.8,1-1.5,2.1-2.3,3
			c-0.4,0.4-1.1,0.8-1.7,0.7c-4-0.4-7.3-1.9-10.5-4.4c-0.6-0.4-1.1-1.3-1-2.1c0.1-0.8,1.1-4.8,2.3-8.8c0.8-2.6,6.4-19.9,13.1-47.8
			s10.4-48,11.4-52.7c0.7-3.6,1.3-6,1.9-10.3c0.1-0.9-0.7-0.9-1.4-0.4c-1.2,1-2.1,1.8-3.2,2.9c-2.5,2.5-19.3,21.4-27.9,32.7
			c-20.1,26.6-41.5,59.2-53.6,77.6c-7.5,11.4-14.1,21.9-17.3,25.3c-3,3.3-7.1,1.2-9.1,0.3c-3.1-1.3-6.6-3.5-4.5-6.2
			c3-4.3,15-22.3,25.2-35.1c23.9-30,51.7-68.8,80.7-96.7c5.8-5.5,9.9-9.1,11.9-10.1c0.8-0.4,1.6-0.5,2.2,0.1c1,1,1.7,1.8,2.7,2.9
			c0.8,0.9,0.7,1.9,0.6,3c-1.1,6.4-15.9,99.4-16.1,100.6c-0.1,0.4,0.1,0.3,0.3,0.2c0.7-0.7,1.3-1.4,2-2.1c4-4.4,8-8.8,12.2-13
			c2.9-3,5.9-6,9.1-8.7c3.5-3,7-5.9,11.4-7.6c2.1-0.8,3.5-0.8,6.2,0.3c1.9,0.8,3.7,1.7,5.4,3c2.1,1.6,2.3,2.6,2.2,4.4
			c-0.3,3.6-0.7,7.3-1.2,10.9c-0.4,2.7-1.2,10-1.2,10.4c0,0.3,0.1,0.4,0.3,0.2c1-1.1,2.8-3.2,3.8-4.3c5.8-6.1,12-13.1,16.5-16.7
			c2.5-2,5.4-2.3,8.3-1.2c2.3,0.9,4.4,2.1,6.5,3.3c2.1,1.2,2.5,3.4,2.5,5.6c0,4.7-5.5,28.1-6.1,31c-0.1,0.4,0.1,1,0.3,1.3
			c0.8,1.3,0.5,2.3-0.9,2.5c-1.2,0.2-2.6,0-3.8-0.3c-3.7-1-7.1-2.7-10.2-5c-0.4-0.3-0.8-0.7-1.2-1.1c-0.5-0.6-0.8-1.1,0-1.9
			c0.6-0.6,1-1.6,1.3-2.4c1.2-3.4,2.4-6.7,3.5-10.1c0.8-2.3,1.5-4.7,2.2-7c0.1-0.2,0.1-0.5,0.1-0.8
			C264.6,155.6,264.6,155.5,264.5,155.5z"/>
	</g>
	<g>
		<g>
			<path class="st0" d="M111.4,246.6h-1.9v-14l-3.8,9.8h-1.3l-3.8-9.7v13.9h-1.9v-18.2h1.9l4.4,11.3l4.4-11.3h1.9V246.6z"/>
			<path class="st0" d="M122.5,242l-1.2,4.7h-2l5-18.2h1.8l5,18.2h-2l-1.2-4.7H122.5z M125.1,231.3l-2.2,9h4.5L125.1,231.3z"/>
			<path class="st0" d="M149,246.6h-1.9l-6.2-14v14h-1.9v-18.2h1.9l6.2,14v-14h1.9V246.6z"/>
			<path class="st0" d="M160.1,242l-1.2,4.7h-2l5-18.2h1.8l5,18.2h-2l-1.2-4.7H160.1z M162.8,231.3l-2.2,9h4.5L162.8,231.3z"/>
			<path class="st0" d="M176.6,241.3v-7.6c0-1.9,0.5-3.2,1.4-4.2c0.9-0.9,2.1-1.4,3.6-1.4c1.5,0,2.6,0.4,3.6,1.3
				c0.9,0.9,1.4,2.1,1.4,3.7v0.3h-1.9v-0.3c0-1.1-0.3-1.9-0.8-2.4c-0.5-0.6-1.3-0.9-2.2-0.9c-2,0-3,1.3-3,4v7.5c0,2.5,1,3.8,3,3.8
				c1,0,1.7-0.3,2.2-0.9c0.5-0.6,0.8-1.5,0.8-2.8v-2.5h-3v-1.6h4.9v4.1c0,1.8-0.4,3.2-1.3,4.1c-0.9,0.9-2.1,1.4-3.6,1.4
				c-1.5,0-2.7-0.5-3.6-1.4C177,244.5,176.6,243.2,176.6,241.3z"/>
			<path class="st0" d="M197.4,236.5h5.3v1.7h-5.3v6.7h6.2v1.7h-8.1v-18.2h8.1v1.7h-6.2V236.5z"/>
			<path class="st0" d="M224.9,246.6H223v-14l-3.8,9.8h-1.3l-3.8-9.7v13.9h-1.9v-18.2h1.9l4.4,11.3l4.4-11.3h1.9V246.6z"/>
			<path class="st0" d="M236,236.5h5.3v1.7H236v6.7h6.2v1.7h-8.1v-18.2h8.1v1.7H236V236.5z"/>
			<path class="st0" d="M261,246.6H259l-6.2-14v14h-1.9v-18.2h1.9l6.2,14v-14h1.9V246.6z"/>
			<path class="st0" d="M274.5,230.1v16.5h-1.9v-16.5h-3.8v-1.7h9.4v1.7H274.5z"/>
		</g>
	</g>
</g>
</svg>
