<?xml version="1.0" encoding="utf-8"?>
<!-- Generator: Adobe Illustrator 26.3.1, SVG Export Plug-In . SVG Version: 6.00 Build 0)  -->
<svg version="1.1" id="레이어_1" xmlns="http://www.w3.org/2000/svg" xmlns:xlink="http://www.w3.org/1999/xlink" x="0px"
	 y="0px" viewBox="0 0 601.2 305.1" style="enable-background:new 0 0 601.2 305.1;" xml:space="preserve">
<style type="text/css">
	.st0{fill:#FFFFFF;}
</style>
<g>
	<polyline class="st0" points="98.4,161.5 115,133 130.7,161.5 147.4,161.5 120.2,108.1 110.2,108.1 81.1,161.5 98,161.5 	"/>
	<polygon class="st0" points="128.4,124.2 166.4,124.2 149.7,161.5 191,161.5 191,147.4 176.8,147.4 174.6,147.4 191,108.1 
		120.2,108.1 	"/>
	<polygon class="st0" points="201,177.8 201,199.7 71.6,199.7 71.6,70.3 201,70.3 201,87 206.6,87 206.6,64.7 66,64.7 66,205.2 
		206.6,205.2 206.6,177.8 	"/>
	<g>
		<path class="st0" d="M497.3,130.2c-1-4-3.3-6.4-7.1-6.4c-2.9,0-4.6,2-4.6,5.1c0,3.1,1.7,4.5,5.9,7c4.2,2.5,7.9,5.1,7.9,10.2
			c0,5.6-4.7,9.5-11.1,9.5c-2.4,0-4.6-0.5-7.3-1.2c-0.3-0.9-1-6.6-1.1-7.4l0.8-0.1c1.1,4.2,3.9,7.6,8.4,7.6c3.3,0,4.8-2.3,4.8-5.5
			c0-3.1-1.8-5.2-5.2-7.3c-4.4-2.7-7.9-5.1-7.9-10.1c0-5,3.9-8.9,10.4-8.9c3,0,5.1,0.6,6.1,0.6c0.2,1.8,0.5,4.5,0.8,6.8L497.3,130.2
			z"/>
		<path class="st0" d="M535.2,141c-2.6,0.7-3.1,1-3.1,3.6v4.6c0,1.7,0.1,3.3,0.3,4.7c-2.8,0.5-7.6,1.6-11.3,1.6
			c-11.2,0-17.3-6.6-17.3-16.1c0-11.2,8.5-16.8,18.4-16.8c4.7,0,8.1,0.8,9.5,0.9c0.1,2.1,0.2,4.6,0.5,7.5l-0.8,0.1
			c-0.6-2.8-2-5.6-5.3-6.6c-1.6-0.5-3.2-0.7-5.1-0.7c-6.4,0-10.5,5-10.5,14.3c0,8.6,2.6,16.2,10.6,16.2c1,0,2.7-0.2,3.6-0.8
			c0.7-0.4,1.2-1,1.2-3.4v-4.9c0-3.1-0.4-3.6-4.3-4.2v-0.8h13.4V141z"/>
	</g>
	<path class="st0" d="M204.1,167.4"/>
	<g>
		<path class="st0" d="M266.2,170.3v-3.5c6.7-0.9,7-2,5.5-6.3c-1.2-3.5-3-8.4-4.8-13.4h-21.2c-1.3,3.8-2.8,7.8-4,11.4
			c-2.2,6.7-0.1,7.5,8.3,8.4v3.5h-25.3v-3.5c6.6-0.8,8.3-1.7,11.9-10.7l21.8-54.5l4.4-0.8c6.7,18.1,13.8,37.2,20.6,54.9
			c3.7,9.5,4.6,10.3,11.7,11.1v3.5H266.2z M256.6,118.2c-3.1,8.1-6.3,16-9.1,23.8h17.7L256.6,118.2z"/>
		<path class="st0" d="M343.1,126c-0.9-3.8-2.6-7.1-3.6-8.5c-1.6-2.1-2.4-2.8-7.7-2.8h-7v43.6c0,7.5,0.9,8.2,9.2,8.8v3.1h-29.1v-3.1
			c8-0.6,8.8-1.3,8.8-8.8v-43.6h-6.6c-5.1,0-6.6,0.7-8.2,3.1c-1.2,1.8-2.3,4.7-3.5,8.3h-3.2c0.6-6.3,1.2-13,1.4-17.6h2.5
			c1.4,2.1,2.4,2.2,5.1,2.2h36.5c2.5,0,3.6-0.5,5.1-2.2h2.5c0.1,4,0.4,11.6,0.9,17.3L343.1,126z"/>
		<path class="st0" d="M378.1,109.4c16.5,0,30.4,12.2,30.4,30.4c0,19.6-13.7,31.9-30.9,31.9c-18.1,0-31.2-13.4-31.2-30.9
			C346.4,124.8,357.8,109.4,378.1,109.4z M376.6,113.2c-9.7,0-17.4,9-17.4,25.5c0,16,7.3,29.1,19.9,29.1c9.5,0,16.9-8.4,16.9-25.5
			C395.9,123.8,387.7,113.2,376.6,113.2z"/>
		<path class="st0" d="M468.4,151.4c-0.7,3.8-3.5,14.9-4.5,18.9h-55.6l-0.8-2.1c13.4-19.5,27.7-40.8,41.3-61.4h-17.7
			c-8.2,0-9.9,0.9-12.1,4.4c-1.2,1.7-2.7,5-4.1,8.9l-3.7-0.1c0.6-6.1,1.7-15.8,2-20.4h3.3c1.2,2.5,2.6,2.5,5.8,2.5h42.3l0.8,1.8
			c-13.4,20-27.1,40.5-40.7,61.4c3.4,0.3,7.7,0.3,14.5,0.3c12.9,0,15.3-0.4,18.3-3.4c2.4-2.3,5.2-6.8,7.3-11.8L468.4,151.4z"/>
	</g>
	<g>
		<path class="st0" d="M74.5,224.4h2.4l6.7,15.6h-3.2l-1.5-3.6h-6.8l-1.4,3.6h-3.1L74.5,224.4z M78.1,234.1l-2.4-6.4l-2.5,6.4H78.1z
			"/>
		<path class="st0" d="M100.3,226.8h-4.8v-2.4h12.4v2.4h-4.8V240h-2.8V226.8z"/>
		<path class="st0" d="M121.6,232.2c0-1.3,0.2-2.4,0.6-3.4c0.4-1,1-1.9,1.7-2.6c0.7-0.7,1.6-1.3,2.7-1.6c1-0.4,2.1-0.6,3.3-0.6
			c1.2,0,2.4,0.2,3.4,0.6c1,0.4,1.9,0.9,2.7,1.6c0.8,0.7,1.3,1.6,1.8,2.6c0.4,1,0.6,2.1,0.6,3.4c0,1.2-0.2,2.3-0.6,3.3
			c-0.4,1-1,1.9-1.8,2.6c-0.8,0.7-1.6,1.3-2.7,1.7c-1,0.4-2.2,0.6-3.4,0.6c-1.2,0-2.3-0.2-3.3-0.6c-1-0.4-1.9-1-2.7-1.7
			c-0.7-0.7-1.3-1.6-1.7-2.6C121.8,234.5,121.6,233.4,121.6,232.2z M124.6,232.2c0,0.8,0.1,1.6,0.4,2.3c0.3,0.7,0.6,1.3,1.1,1.8
			c0.5,0.5,1,0.9,1.7,1.2c0.7,0.3,1.4,0.4,2.2,0.4s1.5-0.1,2.2-0.4s1.2-0.7,1.7-1.2c0.5-0.5,0.8-1.1,1.1-1.8
			c0.3-0.7,0.4-1.5,0.4-2.3c0-0.8-0.1-1.6-0.4-2.3c-0.3-0.7-0.6-1.3-1.1-1.8c-0.5-0.5-1-0.9-1.7-1.2c-0.7-0.3-1.4-0.4-2.2-0.4
			c-0.8,0-1.5,0.1-2.2,0.4c-0.7,0.3-1.2,0.7-1.7,1.2c-0.5,0.5-0.8,1.1-1.1,1.8C124.7,230.6,124.6,231.4,124.6,232.2z"/>
		<path class="st0" d="M152.9,237.5l8.5-10.7H153v-2.4h11.7v2.5l-8.6,10.7h8.7v2.5h-12V237.5z"/>
		<path class="st0" d="M207.3,227.7c-0.3-0.4-0.7-0.7-1.2-1c-0.5-0.3-1.1-0.4-1.6-0.4c-0.3,0-0.6,0-1,0.1c-0.3,0.1-0.6,0.2-0.9,0.4
			c-0.3,0.2-0.5,0.4-0.7,0.7c-0.2,0.3-0.3,0.6-0.3,1c0,0.4,0.1,0.7,0.2,0.9c0.1,0.3,0.3,0.5,0.6,0.6c0.3,0.2,0.6,0.3,0.9,0.5
			c0.4,0.1,0.8,0.3,1.2,0.4c0.5,0.2,1,0.3,1.6,0.6c0.5,0.2,1,0.5,1.5,0.8c0.4,0.3,0.8,0.8,1.1,1.3c0.3,0.5,0.4,1.2,0.4,1.9
			c0,0.8-0.2,1.6-0.5,2.2c-0.3,0.6-0.7,1.1-1.2,1.6c-0.5,0.4-1.1,0.7-1.8,0.9c-0.7,0.2-1.4,0.3-2.2,0.3c-1,0-2-0.2-3-0.6
			c-1-0.4-1.8-0.9-2.4-1.7l2-1.9c0.4,0.5,0.9,1,1.5,1.3c0.6,0.3,1.3,0.5,1.9,0.5c0.3,0,0.7,0,1-0.1c0.3-0.1,0.6-0.2,0.9-0.4
			c0.3-0.2,0.5-0.4,0.7-0.7c0.2-0.3,0.3-0.6,0.3-1.1c0-0.4-0.1-0.8-0.3-1c-0.2-0.3-0.4-0.5-0.8-0.7c-0.3-0.2-0.7-0.4-1.1-0.5
			c-0.4-0.1-0.9-0.3-1.4-0.5c-0.5-0.1-0.9-0.3-1.4-0.5c-0.5-0.2-0.9-0.5-1.3-0.8c-0.4-0.3-0.7-0.8-0.9-1.2c-0.2-0.5-0.4-1.1-0.4-1.8
			c0-0.8,0.2-1.5,0.5-2.1c0.3-0.6,0.8-1,1.3-1.4c0.5-0.4,1.1-0.7,1.8-0.8c0.7-0.2,1.4-0.3,2.1-0.3c0.8,0,1.6,0.1,2.4,0.4
			c0.8,0.3,1.5,0.7,2.1,1.3L207.3,227.7z"/>
		<path class="st0" d="M239,239.2c-0.8,0.4-1.7,0.7-2.6,0.9c-1,0.2-2,0.3-3.3,0.3c-1.3,0-2.4-0.2-3.5-0.6c-1-0.4-1.9-1-2.7-1.7
			c-0.8-0.7-1.3-1.6-1.8-2.6c-0.4-1-0.6-2.1-0.6-3.3c0-1.3,0.2-2.4,0.7-3.4c0.4-1,1-1.9,1.8-2.6c0.8-0.7,1.7-1.3,2.7-1.6
			c1-0.4,2.2-0.6,3.4-0.6c1.3,0,2.4,0.2,3.4,0.5c1,0.4,1.9,0.8,2.5,1.4l-1.9,2.1c-0.4-0.4-1-0.8-1.7-1.1c-0.7-0.3-1.5-0.5-2.3-0.5
			c-0.8,0-1.6,0.1-2.2,0.4c-0.7,0.3-1.2,0.7-1.7,1.2c-0.5,0.5-0.8,1.1-1.1,1.8c-0.3,0.7-0.4,1.4-0.4,2.3c0,0.8,0.1,1.6,0.4,2.3
			c0.3,0.7,0.6,1.3,1.1,1.8c0.5,0.5,1.1,0.9,1.7,1.2c0.7,0.3,1.5,0.4,2.3,0.4c1.2,0,2.2-0.2,3.1-0.6v-4H233v-2.3h6V239.2z"/>
		<path class="st0" d="M285.7,228.1c-0.4-0.6-1-1-1.6-1.2c-0.7-0.3-1.3-0.4-1.9-0.4c-0.8,0-1.5,0.1-2.2,0.4
			c-0.7,0.3-1.2,0.7-1.7,1.2c-0.5,0.5-0.8,1.1-1.1,1.8c-0.3,0.7-0.4,1.4-0.4,2.3c0,0.9,0.1,1.6,0.4,2.3c0.3,0.7,0.6,1.3,1.1,1.8
			c0.5,0.5,1,0.9,1.7,1.2c0.6,0.3,1.4,0.4,2.2,0.4c0.8,0,1.6-0.2,2.2-0.5c0.6-0.3,1.2-0.8,1.6-1.3l2.2,1.6c-0.7,0.9-1.5,1.5-2.5,2
			c-1,0.5-2.2,0.7-3.5,0.7c-1.2,0-2.3-0.2-3.4-0.6c-1-0.4-1.9-1-2.6-1.7c-0.7-0.7-1.3-1.6-1.7-2.6c-0.4-1-0.6-2.1-0.6-3.3
			c0-1.3,0.2-2.4,0.7-3.4c0.4-1,1-1.9,1.8-2.6c0.8-0.7,1.7-1.3,2.7-1.6c1-0.4,2.2-0.6,3.4-0.6c0.5,0,1,0,1.6,0.1
			c0.5,0.1,1.1,0.2,1.6,0.4c0.5,0.2,1,0.4,1.4,0.7c0.4,0.3,0.8,0.6,1.1,1.1L285.7,228.1z"/>
		<path class="st0" d="M302.1,232.2c0-1.3,0.2-2.4,0.6-3.4c0.4-1,1-1.9,1.7-2.6c0.7-0.7,1.6-1.3,2.7-1.6c1-0.4,2.1-0.6,3.3-0.6
			c1.2,0,2.4,0.2,3.4,0.6c1,0.4,1.9,0.9,2.7,1.6c0.8,0.7,1.3,1.6,1.8,2.6c0.4,1,0.6,2.1,0.6,3.4c0,1.2-0.2,2.3-0.6,3.3
			c-0.4,1-1,1.9-1.8,2.6c-0.8,0.7-1.6,1.3-2.7,1.7c-1,0.4-2.2,0.6-3.4,0.6c-1.2,0-2.3-0.2-3.3-0.6c-1-0.4-1.9-1-2.7-1.7
			c-0.7-0.7-1.3-1.6-1.7-2.6C302.3,234.5,302.1,233.4,302.1,232.2z M305.1,232.2c0,0.8,0.1,1.6,0.4,2.3c0.3,0.7,0.6,1.3,1.1,1.8
			c0.5,0.5,1,0.9,1.7,1.2c0.7,0.3,1.4,0.4,2.2,0.4c0.8,0,1.5-0.1,2.2-0.4c0.7-0.3,1.2-0.7,1.7-1.2c0.5-0.5,0.8-1.1,1.1-1.8
			c0.3-0.7,0.4-1.5,0.4-2.3c0-0.8-0.1-1.6-0.4-2.3c-0.3-0.7-0.6-1.3-1.1-1.8c-0.5-0.5-1-0.9-1.7-1.2c-0.7-0.3-1.4-0.4-2.2-0.4
			c-0.8,0-1.5,0.1-2.2,0.4c-0.7,0.3-1.2,0.7-1.7,1.2c-0.5,0.5-0.8,1.1-1.1,1.8C305.2,230.6,305.1,231.4,305.1,232.2z"/>
		<path class="st0" d="M334.9,224.4h3.7l7.3,11.7h0v-11.7h2.8V240h-3.5l-7.4-12.1h0V240h-2.8V224.4z"/>
		<path class="st0" d="M373.3,227.7c-0.3-0.4-0.7-0.7-1.2-1c-0.5-0.3-1.1-0.4-1.6-0.4c-0.3,0-0.6,0-1,0.1c-0.3,0.1-0.6,0.2-0.9,0.4
			c-0.3,0.2-0.5,0.4-0.7,0.7c-0.2,0.3-0.3,0.6-0.3,1c0,0.4,0.1,0.7,0.2,0.9c0.1,0.3,0.3,0.5,0.6,0.6c0.3,0.2,0.6,0.3,0.9,0.5
			c0.4,0.1,0.8,0.3,1.2,0.4c0.5,0.2,1,0.3,1.6,0.6c0.5,0.2,1,0.5,1.5,0.8c0.4,0.3,0.8,0.8,1.1,1.3c0.3,0.5,0.4,1.2,0.4,1.9
			c0,0.8-0.2,1.6-0.5,2.2c-0.3,0.6-0.7,1.1-1.2,1.6c-0.5,0.4-1.1,0.7-1.8,0.9c-0.7,0.2-1.4,0.3-2.2,0.3c-1,0-2-0.2-3-0.6
			c-1-0.4-1.8-0.9-2.4-1.7l2-1.9c0.4,0.5,0.9,1,1.5,1.3c0.6,0.3,1.3,0.5,1.9,0.5c0.3,0,0.7,0,1-0.1c0.3-0.1,0.6-0.2,0.9-0.4
			c0.3-0.2,0.5-0.4,0.7-0.7c0.2-0.3,0.3-0.6,0.3-1.1c0-0.4-0.1-0.8-0.3-1c-0.2-0.3-0.4-0.5-0.8-0.7c-0.3-0.2-0.7-0.4-1.1-0.5
			c-0.4-0.1-0.9-0.3-1.4-0.5c-0.5-0.1-0.9-0.3-1.4-0.5c-0.5-0.2-0.9-0.5-1.3-0.8c-0.4-0.3-0.7-0.8-0.9-1.2c-0.2-0.5-0.4-1.1-0.4-1.8
			c0-0.8,0.2-1.5,0.5-2.1c0.3-0.6,0.8-1,1.3-1.4c0.5-0.4,1.1-0.7,1.8-0.8c0.7-0.2,1.4-0.3,2.1-0.3c0.8,0,1.6,0.1,2.4,0.4
			c0.8,0.3,1.5,0.7,2.1,1.3L373.3,227.7z"/>
		<path class="st0" d="M403.8,234.3c0,0.9-0.2,1.8-0.5,2.6c-0.3,0.8-0.8,1.4-1.3,1.9c-0.6,0.5-1.2,0.9-2,1.2
			c-0.8,0.3-1.6,0.4-2.5,0.4c-0.9,0-1.7-0.1-2.5-0.4c-0.8-0.3-1.4-0.7-2-1.2c-0.6-0.5-1-1.2-1.3-1.9c-0.3-0.8-0.5-1.6-0.5-2.6v-9.9
			h2.8v9.8c0,0.5,0.1,0.9,0.2,1.4c0.1,0.4,0.3,0.9,0.6,1.2c0.3,0.4,0.6,0.6,1.1,0.9c0.4,0.2,1,0.3,1.7,0.3c0.7,0,1.2-0.1,1.7-0.3
			c0.4-0.2,0.8-0.5,1.1-0.9c0.3-0.4,0.5-0.8,0.6-1.2c0.1-0.4,0.2-0.9,0.2-1.4v-9.8h2.8V234.3z"/>
		<path class="st0" d="M420.4,224.4h2.8v13.2h6.7v2.5h-9.4V224.4z"/>
		<path class="st0" d="M446.2,226.8h-4.8v-2.4h12.4v2.4H449V240h-2.8V226.8z"/>
		<path class="st0" d="M468.8,224.4h2.8V240h-2.8V224.4z"/>
		<path class="st0" d="M488.3,224.4h3.7l7.3,11.7h0v-11.7h2.8V240h-3.5l-7.4-12.1h0V240h-2.8V224.4z"/>
		<path class="st0" d="M532.5,239.2c-0.8,0.4-1.7,0.7-2.6,0.9c-1,0.2-2,0.3-3.3,0.3c-1.3,0-2.4-0.2-3.5-0.6c-1-0.4-1.9-1-2.7-1.7
			c-0.8-0.7-1.3-1.6-1.8-2.6c-0.4-1-0.6-2.1-0.6-3.3c0-1.3,0.2-2.4,0.7-3.4c0.4-1,1-1.9,1.8-2.6c0.8-0.7,1.7-1.3,2.7-1.6
			c1-0.4,2.2-0.6,3.4-0.6c1.3,0,2.4,0.2,3.4,0.5c1,0.4,1.9,0.8,2.5,1.4l-1.9,2.1c-0.4-0.4-1-0.8-1.7-1.1c-0.7-0.3-1.5-0.5-2.3-0.5
			c-0.8,0-1.6,0.1-2.2,0.4c-0.7,0.3-1.2,0.7-1.7,1.2c-0.5,0.5-0.8,1.1-1.1,1.8c-0.3,0.7-0.4,1.4-0.4,2.3c0,0.8,0.1,1.6,0.4,2.3
			c0.3,0.7,0.6,1.3,1.1,1.8c0.5,0.5,1.1,0.9,1.7,1.2c0.7,0.3,1.5,0.4,2.3,0.4c1.2,0,2.2-0.2,3.1-0.6v-4h-3.3v-2.3h6V239.2z"/>
	</g>
	<rect x="200.9" y="99.6" class="st0" width="6.4" height="67.8"/>
</g>
</svg>
