<?xml version="1.0" encoding="utf-8"?>
<!-- Generator: Adobe Illustrator 26.3.1, SVG Export Plug-In . SVG Version: 6.00 Build 0)  -->
<svg version="1.1" id="레이어_1" xmlns="http://www.w3.org/2000/svg" xmlns:xlink="http://www.w3.org/1999/xlink" x="0px"
	 y="0px" viewBox="0 0 366.2 305.1" style="enable-background:new 0 0 366.2 305.1;" xml:space="preserve">
<style type="text/css">
	.st0{fill:#FFFFFF;}
</style>
<g id="Layer_2_00000151538302530684008930000000123569528783733902_">
	<g id="Layer_1-2_00000078761419543362019130000001269359263720236448_">
		<path id="합치기_1_00000013175171524963728820000007996061321324639922_" class="st0" d="M110.2,123
			c0-39.8,32.3-72.1,72.1-72.1s72.1,32.3,72.1,72.1s-32.3,72.1-72.1,72.1S110.2,162.8,110.2,123z M116.9,123
			c0,36,29.3,65.4,65.4,65.4s65.4-29.3,65.4-65.4s-29.3-65.4-65.4-65.4S116.9,87,116.9,123z M149.5,166c-4.8-0.1-8.1-3.3-9.3-5.8
			c-1.3-2.6-1.3-5.9-0.1-8.4c1.2-2.5,24.3-49.1,25-50.7s0.7-1.5,0.7-3.3c0-1.8,0-20.7,0-20.7s-1.8,0-2.9,0c-2.7,0-3.9-1.9-3.9-3.5
			c0-1.5,1-3.6,3.7-3.6c2.3,0,6.3,0,10.2,0l0,10.8h8.2v3.5h-8.2V88h8.2v3.5h-8.2v9.1c0,0.9-0.1,0.9-0.6,1.9s-24.8,50.2-25.6,51.9
			c-0.8,1.6,0.8,4.4,3.1,4.4c2.3,0,62,0,64.9,0c2.9,0,3.7-3.5,3.1-4.6c-0.6-1.1-25.4-51.3-25.9-52.3c-0.4-1-0.4-0.9-0.4-2.4
			c0-1.6,0-29.6,0-29.6H202c1.9,0,3.5,1.5,3.6,3.4c0,1.9-1.5,3.5-3.4,3.6c0,0-0.1,0-0.1,0H202c-1,0-3.3,0-3.3,0s0,20.7,0,21.8
			c0,1.2,0.3,1.4,1.1,3s22.7,45.8,24.2,48.8c1.5,3,2,7.3-0.7,10.9c-2.7,3.6-5.8,4.4-8.3,4.5c-2,0-41,0.1-58,0.1
			C153.1,166,150.4,166,149.5,166L149.5,166z M179.7,148.3c0-1.3,1.1-2.4,2.4-2.4c1.3,0,2.4,1.1,2.4,2.4c0,1.3-1.1,2.4-2.4,2.4
			c0,0,0,0,0,0l0,0C180.8,150.8,179.7,149.7,179.7,148.3C179.7,148.3,179.7,148.3,179.7,148.3z M186.9,147.8c-0.3-0.3-0.3-0.7,0-1
			c0.3-0.3,0.7-0.3,1,0c0.3,0.3,0.3,0.7,0,1c-0.1,0.1-0.3,0.2-0.5,0.2C187.3,148,187.1,148,186.9,147.8z M176.3,147.8
			c-0.3-0.3-0.3-0.7,0-1c0.3-0.3,0.7-0.3,1,0c0.3,0.3,0.3,0.7,0,1c-0.1,0.1-0.3,0.2-0.5,0.2C176.6,148,176.5,148,176.3,147.8
			L176.3,147.8z M190.1,145.9c-0.9-0.9-0.9-2.4,0.1-3.4c1-1,2.5-1,3.4-0.1s0.9,2.4-0.1,3.4c-0.5,0.5-1.1,0.7-1.7,0.7
			C191.2,146.6,190.6,146.3,190.1,145.9L190.1,145.9z M170.9,145.9c-1-1-1-2.5-0.1-3.4s2.4-0.9,3.4,0.1c1,1,1,2.5,0.1,3.4
			c-0.4,0.4-1,0.7-1.6,0.7C172,146.6,171.3,146.3,170.9,145.9z M181.5,144.4c0-0.4,0.3-0.7,0.7-0.7s0.7,0.3,0.7,0.7
			c0,0.4-0.3,0.7-0.7,0.7l0,0C181.8,145.2,181.5,144.8,181.5,144.4z M181.5,142.4c0-0.4,0.3-0.7,0.7-0.7s0.7,0.3,0.7,0.7
			c0,0.4-0.3,0.7-0.7,0.7l0,0C181.8,143.1,181.5,142.8,181.5,142.4z M188.7,142c-0.3-0.3-0.3-0.7,0-1s0.7-0.3,1,0s0.3,0.7,0,1
			c-0.1,0.1-0.3,0.2-0.5,0.2C189,142.2,188.8,142.1,188.7,142z M174.7,142c-0.3-0.3-0.3-0.7,0-1s0.7-0.3,1,0s0.3,0.7,0,1
			c-0.1,0.1-0.3,0.2-0.5,0.2C175.1,142.2,174.9,142.1,174.7,142z M181.5,140.3c0-0.4,0.3-0.7,0.7-0.7s0.7,0.3,0.7,0.7
			c0,0.4-0.3,0.7-0.7,0.7l0,0C181.8,141.1,181.5,140.7,181.5,140.3z M187.2,140.6c-0.3-0.3-0.3-0.7,0-1c0.3-0.3,0.7-0.3,1,0
			c0.3,0.3,0.3,0.7,0,1c-0.1,0.1-0.3,0.2-0.5,0.2C187.5,140.8,187.3,140.7,187.2,140.6z M176.2,140.6c-0.3-0.3-0.3-0.7,0-1
			c0.3-0.3,0.7-0.3,1,0c0.3,0.3,0.3,0.7,0,1c-0.1,0.1-0.3,0.2-0.5,0.2C176.5,140.8,176.3,140.7,176.2,140.6z M194.5,140.3
			c-0.3-0.3-0.3-0.7,0-1c0.3-0.3,0.7-0.3,1,0s0.3,0.7,0,1c-0.1,0.1-0.3,0.2-0.5,0.2C194.8,140.5,194.6,140.4,194.5,140.3z
			 M168.7,140.3c-0.3-0.3-0.3-0.7,0-1c0.3-0.3,0.7-0.3,1,0c0.3,0.3,0.3,0.7,0,1c-0.1,0.1-0.3,0.2-0.5,0.2
			C169,140.5,168.8,140.4,168.7,140.3z M185.8,139.1c-0.3-0.3-0.3-0.7,0-1c0.3-0.3,0.7-0.3,1,0c0.3,0.3,0.3,0.7,0,1
			c-0.1,0.1-0.3,0.2-0.5,0.2C186.1,139.3,185.9,139.2,185.8,139.1z M177.6,139.1c-0.3-0.3-0.3-0.7,0-1c0.3-0.3,0.7-0.3,1,0
			s0.3,0.7,0,1c-0.1,0.1-0.3,0.2-0.5,0.2C177.9,139.3,177.8,139.2,177.6,139.1z M177.9,134.6c0-2.4,1.9-4.3,4.3-4.3s4.3,1.9,4.3,4.3
			c0,2.4-1.9,4.3-4.3,4.3l0,0l0,0C179.8,138.9,177.9,137,177.9,134.6L177.9,134.6z M193.6,134.5c0-1.3,1.1-2.4,2.4-2.4
			s2.4,1.1,2.4,2.4s-1.1,2.4-2.4,2.4c0,0,0,0,0,0l0,0C194.6,136.9,193.6,135.8,193.6,134.5L193.6,134.5z M166,134.5
			c0-1.3,1.1-2.4,2.4-2.4s2.4,1.1,2.4,2.4s-1.1,2.4-2.4,2.4l0,0C167.1,136.9,166,135.8,166,134.5L166,134.5z M191.3,134.5
			c0-0.4,0.3-0.7,0.7-0.7s0.7,0.3,0.7,0.7c0,0.4-0.3,0.7-0.7,0.7l0,0C191.6,135.3,191.3,134.9,191.3,134.5z M189.3,134.5
			c0-0.4,0.3-0.7,0.7-0.7s0.7,0.3,0.7,0.7s-0.3,0.7-0.7,0.7c0,0,0,0,0,0C189.6,135.3,189.3,134.9,189.3,134.5
			C189.3,134.5,189.3,134.5,189.3,134.5z M187.2,134.5c0-0.4,0.3-0.7,0.7-0.7c0.4,0,0.7,0.3,0.7,0.7c0,0.4-0.3,0.7-0.7,0.7l0,0
			C187.6,135.3,187.2,134.9,187.2,134.5z M175.7,134.5c0-0.4,0.3-0.7,0.7-0.7s0.7,0.3,0.7,0.7c0,0.4-0.3,0.7-0.7,0.7l0,0
			C176,135.3,175.7,134.9,175.7,134.5z M173.7,134.5c0-0.4,0.3-0.7,0.7-0.7s0.7,0.3,0.7,0.7c0,0.4-0.3,0.7-0.7,0.7l0,0
			C174,135.3,173.7,134.9,173.7,134.5z M171.6,134.5c0-0.4,0.3-0.7,0.7-0.7s0.7,0.3,0.7,0.7c0,0.4-0.3,0.7-0.7,0.7l0,0
			C172,135.3,171.6,134.9,171.6,134.5z M185.8,131c-0.3-0.3-0.3-0.7,0-1c0.3-0.3,0.7-0.3,1,0c0.3,0.3,0.3,0.7,0,1
			c-0.1,0.1-0.3,0.2-0.5,0.2C186.1,131.2,185.9,131.1,185.8,131L185.8,131z M177.6,131c-0.3-0.3-0.3-0.7,0-1c0.3-0.3,0.7-0.3,1,0
			c0.3,0.3,0.3,0.7,0,1c-0.1,0.1-0.3,0.2-0.5,0.2C177.9,131.2,177.8,131.1,177.6,131L177.6,131z M194.5,129.7c-0.3-0.3-0.3-0.7,0-1
			s0.7-0.3,1,0c0.3,0.3,0.3,0.7,0,1c-0.1,0.1-0.3,0.2-0.5,0.2C194.8,129.9,194.6,129.8,194.5,129.7L194.5,129.7z M168.8,129.7
			c-0.3-0.3-0.3-0.7,0-1c0.3-0.3,0.7-0.3,1,0c0.3,0.3,0.3,0.7,0,1c-0.1,0.1-0.3,0.2-0.5,0.2C169.1,129.9,169,129.8,168.8,129.7z
			 M187.2,129.5c-0.3-0.3-0.3-0.7,0-1s0.7-0.3,1,0s0.3,0.7,0,1c-0.1,0.1-0.3,0.2-0.5,0.2C187.5,129.7,187.3,129.7,187.2,129.5z
			 M176.2,129.5c-0.3-0.3-0.3-0.7,0-1c0.3-0.3,0.7-0.3,1,0c0.3,0.3,0.3,0.7,0,1c-0.1,0.1-0.3,0.2-0.5,0.2
			C176.5,129.7,176.3,129.7,176.2,129.5z M181.5,128.7c0-0.4,0.3-0.7,0.7-0.7s0.7,0.3,0.7,0.7c0,0.4-0.3,0.7-0.7,0.7l0,0
			C181.8,129.4,181.5,129.1,181.5,128.7z M188.7,128.1c-0.3-0.3-0.3-0.7,0-1c0.3-0.3,0.7-0.3,1,0s0.3,0.7,0,1
			c-0.1,0.1-0.3,0.2-0.5,0.2C189,128.3,188.8,128.2,188.7,128.1z M174.7,128.1c-0.3-0.3-0.3-0.7,0-1c0.3-0.3,0.7-0.3,1,0
			c0.3,0.3,0.3,0.7,0,1c0,0,0,0,0,0c-0.1,0.1-0.3,0.2-0.5,0.2C175.1,128.3,174.9,128.2,174.7,128.1L174.7,128.1z M181.5,126.7
			c0-0.4,0.3-0.7,0.7-0.7s0.7,0.3,0.7,0.7c0,0.4-0.3,0.7-0.7,0.7l0,0C181.8,127.4,181.5,127.1,181.5,126.7
			C181.5,126.7,181.5,126.7,181.5,126.7z M170.8,126.6c-0.9-0.9-0.9-2.4,0.1-3.4c1-1,2.5-1,3.4-0.1s0.9,2.4-0.1,3.4
			c-0.5,0.5-1.1,0.7-1.7,0.7C171.8,127.3,171.3,127,170.8,126.6L170.8,126.6z M190.2,126.5c-1-1-1-2.5-0.1-3.4
			c0.9-0.9,2.4-0.9,3.4,0.1c1,1,1,2.5,0.1,3.4c-0.4,0.4-1,0.7-1.6,0.7C191.3,127.3,190.7,127,190.2,126.5L190.2,126.5z M181.5,124.6
			c0-0.4,0.3-0.7,0.7-0.7s0.7,0.3,0.7,0.7c0,0.4-0.3,0.7-0.7,0.7l0,0C181.8,125.3,181.5,125,181.5,124.6z M179.7,120.6
			c0-1.3,1.1-2.4,2.4-2.4c1.3,0,2.4,1.1,2.4,2.4s-1.1,2.4-2.4,2.4c0,0,0,0,0,0C180.8,123,179.7,122,179.7,120.6L179.7,120.6z
			 M186.9,122.2c-0.3-0.3-0.3-0.7,0-1c0.3-0.3,0.7-0.3,1,0c0.3,0.3,0.3,0.7,0,1c-0.1,0.1-0.3,0.2-0.5,0.2
			C187.3,122.4,187.1,122.3,186.9,122.2z M176.3,122.1c-0.3-0.3-0.3-0.7,0-1c0.3-0.3,0.7-0.3,1,0c0.3,0.3,0.3,0.7,0,1
			c-0.1,0.1-0.3,0.2-0.5,0.2C176.6,122.4,176.5,122.3,176.3,122.1z"/>
		<path id="패스_9_00000134965938346687925470000015623344789499941803_" class="st0" d="M80.5,254.1H91
			c11.5,0,16.2-6.9,16.2-15.9c0-3.9-0.9-7.4-3.2-10.3c-3.8-5.1-9.5-5.5-13.4-5.5h-10V254.1z M86.9,228.1h4.5c3.8,0,6,1.5,7.3,3.2
			c1.5,2,2.1,4.6,2.1,7.1c0,5.7-2.6,10.2-9.5,10.2h-4.5V228.1z M121.2,254.1h17.7v-5.6h-11.4v-7.6h11.1v-5.6h-11.1v-7.2h11.4v-5.6
			h-17.7V254.1z M150.8,254.1h7.1l7.3-12.1l7.6,12.1h7.3l-10.9-16.5l9.8-15.1h-7.2l-6.4,10.3l-6.5-10.3h-7.2l9.9,15L150.8,254.1z
			 M193.1,254.1h16.8v-5.6h-10.4v-26h-6.4L193.1,254.1z M229,247.9h12.5l2.3,6.2h7l-12.5-31.6h-5.6l-12.8,31.6h6.9L229,247.9z
			 M239.8,242.9h-9.1l4.5-12.8L239.8,242.9z M263.5,254.1h9.7c4.5,0,6.5-0.3,9-2.2c2.2-1.5,3.4-4.2,3.4-7.1c0-1.4-0.2-5.8-5.5-7.6
			c2.4-1.3,3.9-3.6,3.9-6.5c0-2.6-0.9-4.9-3.1-6.3c-1.6-1.2-4-1.9-7.1-1.9h-10.4L263.5,254.1z M269.9,228.1h3.5
			c1.2,0,2.1,0.1,2.8,0.5c0.9,0.4,1.8,1.4,1.8,3c0,1.5-0.6,2.5-1.8,3.2c-0.8,0.3-1.8,0.4-2.7,0.4h-3.5L269.9,228.1z M269.9,240.5
			h4.3c1.1,0,2.2,0,3.2,0.4c1.3,0.6,2.2,1.7,2.2,3.5c0,2-1,3.1-2.3,3.6c-1,0.4-2.1,0.5-2.9,0.5h-4.5V240.5z"/>
	</g>
</g>
</svg>
