<?xml version="1.0" encoding="utf-8"?>
<!-- Generator: Adobe Illustrator 26.3.1, SVG Export Plug-In . SVG Version: 6.00 Build 0)  -->
<svg version="1.1" id="레이어_1" xmlns="http://www.w3.org/2000/svg" xmlns:xlink="http://www.w3.org/1999/xlink" x="0px"
	 y="0px" viewBox="0 0 366.2 305.1" style="enable-background:new 0 0 366.2 305.1;" xml:space="preserve">
<style type="text/css">
	.st0{fill:#FFFFFF;}
</style>
<g>
	<path class="st0" d="M66,207.7H50.3v-15.1h4.1v4.3H62v-4.3H66v5.4h5.4v-7.4h4.1v18.4h-4.1v-7.8H66V207.7z M62,200.1h-7.6v4.4H62
		V200.1z M75.6,223H57.8v-13.2h4.1v3.3h9.6v-3.3h4.1V223z M71.5,216.3h-9.6v3.6h9.6V216.3z"/>
	<path class="st0" d="M110.5,211.8H97.3v10.7h-4.1v-10.7H79.9v-3.3h30.6V211.8z M104.7,205.5H85.8v-12.8h18.9V205.5z M100.6,195.9
		H89.9v6.4h10.8V195.9z"/>
	<path class="st0" d="M129.6,207.7h-15.7v-15.1h4.1v4.3h7.6v-4.3h4.1v5.4h5.4v-7.4h4.1v18.4h-4.1v-7.8h-5.4V207.7z M125.6,200.1H118
		v4.4h7.6V200.1z M139.2,223h-17.8v-13.2h4.1v3.3h9.6v-3.3h4.1V223z M135.1,216.3h-9.6v3.6h9.6V216.3z"/>
	<path class="st0" d="M162,201c0,1.1-0.2,2.1-0.7,3c-0.5,1-1.1,1.8-1.9,2.6c-0.9,0.7-1.8,1.2-2.9,1.6c-1.1,0.4-2.3,0.6-3.5,0.6
		c-1.2,0-2.4-0.2-3.5-0.6c-1.1-0.4-2.1-0.9-2.9-1.6c-0.8-0.7-1.4-1.6-1.9-2.6c-0.5-0.9-0.7-1.9-0.7-3c0-1.1,0.2-2.1,0.7-3.1
		c0.4-0.9,1.1-1.8,1.9-2.5c0.9-0.7,1.8-1.2,2.9-1.6c1.1-0.4,2.3-0.6,3.5-0.6c1.2,0,2.4,0.2,3.5,0.6c1.1,0.4,2.1,1,2.9,1.6
		c0.8,0.7,1.4,1.6,1.9,2.5C161.7,198.9,162,199.9,162,201 M157.8,201c0-0.6-0.1-1.2-0.4-1.8c-0.2-0.5-0.6-1-1-1.5
		c-0.5-0.4-1-0.7-1.6-0.9c-0.6-0.2-1.2-0.3-1.9-0.3c-0.6,0-1.2,0.1-1.8,0.3c-0.6,0.2-1.2,0.5-1.6,0.9c-0.5,0.4-0.8,0.9-1,1.5
		c-0.2,0.6-0.4,1.2-0.4,1.8c0,0.7,0.1,1.3,0.4,1.8c0.2,0.6,0.5,1.1,1,1.5c0.4,0.4,1,0.7,1.6,0.9c0.6,0.2,1.2,0.3,1.8,0.3
		c0.6,0,1.2-0.1,1.9-0.3c0.6-0.2,1.1-0.5,1.6-0.9c0.4-0.4,0.8-0.9,1-1.5C157.7,202.2,157.8,201.6,157.8,201 M170.9,222.7h-19v-10.8
		h4.1v7.6h14.8V222.7z M166.2,190.6h4.1v23.1h-4.1V190.6z"/>
	<path class="st0" d="M187.3,215.2h30.6v3.3h-30.6V215.2z M212.8,211.3H193v-10.4h15v-4.2h-15.1v-3.2h19.2V204h-15v4.1h15.7V211.3z"
		/>
	<path class="st0" d="M235.9,212.1h-14.6v-17.8h4.1v14.6h10.5V212.1z M231.2,200.5h6.4v-9.2h4v29.1h-4v-16.7h-6.4V200.5z
		 M248.4,222.5h-4v-31.9h4V222.5z"/>
	<path class="st0" d="M263.7,199.3l8.1,6.9l-2.7,2.4l-6.8-6c-1.5,2.6-3.9,4.9-7.2,7.1l-2.8-2.3c2.9-1.8,5-3.9,6.2-6.2
		c1.2-2.3,1.9-4.7,1.9-7.3v-1.7h4.2v1.7C264.6,195.7,264.3,197.5,263.7,199.3 M278.3,216.6c0,0.9-0.2,1.8-0.7,2.7
		c-0.5,0.8-1.1,1.5-1.8,2.2c-0.8,0.6-1.7,1.1-2.8,1.4c-1.1,0.3-2.3,0.5-3.4,0.5c-1.2,0-2.3-0.2-3.4-0.5c-1.1-0.3-2-0.8-2.8-1.4
		c-0.8-0.6-1.4-1.4-1.8-2.2c-0.5-0.9-0.7-1.7-0.7-2.7c0-0.9,0.2-1.8,0.7-2.7c0.4-0.8,1.1-1.5,1.8-2.2c0.8-0.6,1.7-1.1,2.8-1.4
		c1.1-0.3,2.2-0.5,3.4-0.5c1.2,0,2.3,0.2,3.4,0.5c1.1,0.3,2,0.8,2.8,1.4c0.8,0.6,1.4,1.4,1.8,2.2
		C278.1,214.8,278.3,215.7,278.3,216.6 M274.2,216.6c0-1-0.5-1.8-1.3-2.6c-0.9-0.7-2-1-3.3-1c-1.3,0-2.4,0.4-3.2,1
		c-0.9,0.7-1.4,1.5-1.4,2.6c0,1,0.4,1.8,1.4,2.6c0.9,0.7,2,1,3.2,1c1.2,0,2.3-0.4,3.3-1C273.7,218.5,274.2,217.6,274.2,216.6
		 M283.5,201.7h-5.3v8.2H274v-19.2h4.1v7.6h5.3V201.7z"/>
	<path class="st0" d="M285.3,215.2h30.6v3.3h-30.6V215.2z M302.2,199l11.2,9.1l-2.9,2.5l-10-8.3c-0.4,0.5-0.8,1.1-1.2,1.6
		c-2.4,2.9-5.4,5.1-9.1,6.6l-2.5-2.6c3.4-1.4,6-3.4,8-5.8c1.9-2.4,2.9-5,2.9-7.8v-1.1h4.3v1.6C303,196.2,302.7,197.6,302.2,199"/>
	<polygon class="st0" points="84.1,232.8 85.4,232.8 85.4,240.8 89.3,240.8 89.3,241.9 84.1,241.9 	"/>
	<path class="st0" d="M96.2,232.8h1.2l3.6,9.1h-1.4l-1-2.5h-3.7l-1,2.5h-1.4L96.2,232.8z M95.3,238.4h3l-0.6-1.6
		c-0.2-0.4-0.3-0.8-0.4-1.2c-0.1-0.4-0.3-0.8-0.4-1.2h0c-0.1,0.4-0.3,0.8-0.4,1.2c-0.1,0.4-0.3,0.8-0.5,1.2L95.3,238.4z"/>
	<path class="st0" d="M104.8,232.8l1.5,5.4c0,0.1,0.1,0.3,0.1,0.4c0,0.2,0.1,0.4,0.1,0.6c0,0.2,0.1,0.4,0.1,0.6
		c0,0.2,0.1,0.4,0.1,0.6h0c0-0.2,0.1-0.4,0.1-0.6c0-0.2,0.1-0.4,0.1-0.6c0-0.2,0.1-0.4,0.1-0.6c0-0.2,0.1-0.3,0.1-0.4l1.6-5.4h1.2
		l1.6,5.4c0,0.1,0.1,0.3,0.1,0.4c0,0.2,0.1,0.4,0.1,0.5c0,0.2,0.1,0.4,0.1,0.6c0,0.2,0.1,0.4,0.1,0.6h0c0-0.2,0.1-0.4,0.1-0.6
		c0-0.2,0.1-0.4,0.1-0.6c0-0.2,0.1-0.4,0.1-0.6c0-0.2,0.1-0.3,0.1-0.4l1.5-5.4h1.3l-2.7,9.1h-1.3l-1.4-4.8c-0.1-0.2-0.1-0.5-0.2-0.7
		c-0.1-0.2-0.1-0.4-0.2-0.6c-0.1-0.2-0.1-0.4-0.2-0.6c-0.1-0.2-0.1-0.4-0.2-0.6h0c-0.1,0.4-0.2,0.9-0.3,1.3
		c-0.1,0.4-0.2,0.8-0.3,1.2l-1.3,4.8h-1.3l-2.7-9.1H104.8z"/>
	<polygon class="st0" points="125.1,232.8 125.1,233.9 121.1,233.9 121.1,236.9 124.8,236.9 124.8,238 121.1,238 121.1,241.9 
		119.8,241.9 119.8,232.8 	"/>
	<rect x="129.7" y="232.8" class="st0" width="1.3" height="9.1"/>
	<path class="st0" d="M136.2,232.8h3c0.5,0,0.9,0.1,1.3,0.2c0.4,0.1,0.7,0.3,0.9,0.6c0.2,0.2,0.4,0.5,0.6,0.9
		c0.1,0.3,0.2,0.7,0.2,1.1c0,0.3-0.1,0.7-0.2,0.9s-0.2,0.5-0.4,0.7c-0.2,0.2-0.4,0.4-0.6,0.5c-0.2,0.1-0.5,0.3-0.7,0.4l2.4,3.8h-1.5
		l-2.2-3.6h-1.5v3.6h-1.3V232.8z M137.5,237.3h1.1c0.3,0,0.6,0,0.8-0.1c0.3-0.1,0.5-0.2,0.7-0.3c0.2-0.1,0.3-0.3,0.4-0.5
		c0.1-0.2,0.2-0.5,0.2-0.8c0-0.6-0.2-1-0.5-1.3c-0.3-0.3-0.8-0.4-1.4-0.4h-1.3V237.3z"/>
	<path class="st0" d="M147.4,232.8h1.7l1.9,5.8c0.1,0.3,0.2,0.6,0.3,0.8c0.1,0.3,0.2,0.5,0.2,0.8h0c0.1-0.3,0.2-0.5,0.2-0.8
		c0.1-0.2,0.2-0.5,0.3-0.8l1.9-5.8h1.7l0.8,9.1h-1.3l-0.4-4.8c0-0.5-0.1-0.9-0.1-1.4c0-0.5,0-0.9-0.1-1.4h0
		c-0.1,0.5-0.3,0.9-0.4,1.4c-0.1,0.5-0.3,0.9-0.4,1.4l-1.6,4.8H151l-1.6-4.8c-0.2-0.5-0.3-1-0.4-1.4c-0.1-0.4-0.3-0.9-0.4-1.4h0
		c0,0.5,0,0.9-0.1,1.4c0,0.5-0.1,0.9-0.1,1.4l-0.3,4.8h-1.3L147.4,232.8z"/>
	<path class="st0" d="M167.6,232.8h3c0.5,0,0.9,0.1,1.3,0.2c0.4,0.1,0.7,0.3,0.9,0.6c0.2,0.2,0.4,0.5,0.6,0.9
		c0.1,0.3,0.2,0.7,0.2,1.1c0,0.3-0.1,0.7-0.2,0.9s-0.2,0.5-0.4,0.7c-0.2,0.2-0.4,0.4-0.6,0.5c-0.2,0.1-0.5,0.3-0.7,0.4l2.4,3.8h-1.5
		l-2.2-3.6h-1.5v3.6h-1.3V232.8z M168.8,237.3h1.1c0.3,0,0.6,0,0.8-0.1c0.3-0.1,0.5-0.2,0.7-0.3c0.2-0.1,0.3-0.3,0.4-0.5
		c0.1-0.2,0.2-0.5,0.2-0.8c0-0.6-0.2-1-0.5-1.3c-0.3-0.3-0.8-0.4-1.4-0.4h-1.3V237.3z"/>
	<polygon class="st0" points="178.2,232.8 183.7,232.8 183.7,233.9 179.6,233.9 179.6,236.7 183.4,236.7 183.4,237.7 179.6,237.7 
		179.6,240.8 183.8,240.8 183.8,241.9 178.2,241.9 	"/>
	<path class="st0" d="M188.4,232.8h1.2l4.1,5.8c0.2,0.2,0.3,0.4,0.4,0.6c0.1,0.2,0.3,0.4,0.4,0.6h0c0-0.3,0-0.7,0-1c0-0.3,0-0.7,0-1
		v-5h1.3v9.1h-1.2l-4.1-5.7c-0.1-0.2-0.3-0.4-0.4-0.7c-0.2-0.3-0.3-0.5-0.4-0.8h0c0,0.4,0,0.8,0,1.2c0,0.4,0,0.8,0,1.2v4.7h-1.3
		V232.8z"/>
	<path class="st0" d="M203.5,232.8h1.2l3.6,9.1H207l-1-2.5h-3.7l-1,2.5h-1.4L203.5,232.8z M202.6,238.4h3l-0.6-1.6
		c-0.2-0.4-0.3-0.8-0.4-1.2c-0.1-0.4-0.3-0.8-0.4-1.2h0c-0.1,0.4-0.3,0.8-0.4,1.2s-0.3,0.8-0.5,1.2L202.6,238.4z"/>
	<rect x="212.4" y="232.8" class="st0" width="1.3" height="9.1"/>
	<path class="st0" d="M221.5,232.7c0.4,0,0.9,0,1.3,0.1c0.4,0.1,0.8,0.2,1.2,0.4l-0.3,1.1c-0.4-0.2-0.8-0.3-1.1-0.4
		c-0.3-0.1-0.7-0.1-1-0.1c-0.5,0-1,0.1-1.3,0.4c-0.3,0.2-0.5,0.6-0.5,1c0,0.4,0.1,0.7,0.4,0.9c0.2,0.2,0.6,0.4,1.2,0.6l0.9,0.3
		c0.8,0.3,1.4,0.6,1.8,1.1c0.3,0.4,0.5,1,0.5,1.5c0,0.4-0.1,0.8-0.2,1.1c-0.2,0.3-0.4,0.6-0.7,0.8c-0.3,0.2-0.6,0.4-1,0.5
		c-0.4,0.1-0.8,0.2-1.3,0.2c-0.5,0-0.9,0-1.4-0.1c-0.5-0.1-1-0.2-1.4-0.5l0.3-1.1c0.4,0.2,0.8,0.4,1.2,0.4c0.4,0.1,0.8,0.1,1.2,0.1
		c0.5,0,1-0.1,1.3-0.4c0.4-0.2,0.6-0.6,0.6-1.1c0-0.2,0-0.3-0.1-0.5c-0.1-0.2-0.1-0.3-0.3-0.4c-0.1-0.1-0.3-0.3-0.5-0.4
		c-0.2-0.1-0.5-0.2-0.8-0.3l-0.9-0.3c-0.7-0.2-1.2-0.5-1.5-0.9c-0.4-0.4-0.5-0.9-0.5-1.5c0-0.8,0.3-1.4,0.8-1.9
		C219.7,232.9,220.5,232.7,221.5,232.7"/>
	<path class="st0" d="M231.5,232.7c0.4,0,0.9,0,1.3,0.1c0.4,0.1,0.8,0.2,1.2,0.4l-0.3,1.1c-0.4-0.2-0.8-0.3-1.1-0.4
		c-0.3-0.1-0.7-0.1-1-0.1c-0.5,0-1,0.1-1.3,0.4c-0.3,0.2-0.5,0.6-0.5,1c0,0.4,0.1,0.7,0.4,0.9c0.2,0.2,0.6,0.4,1.2,0.6l0.9,0.3
		c0.8,0.3,1.4,0.6,1.8,1.1c0.3,0.4,0.5,1,0.5,1.5c0,0.4-0.1,0.8-0.2,1.1c-0.2,0.3-0.4,0.6-0.7,0.8c-0.3,0.2-0.6,0.4-1,0.5
		c-0.4,0.1-0.8,0.2-1.3,0.2c-0.5,0-0.9,0-1.4-0.1c-0.5-0.1-1-0.2-1.4-0.5l0.3-1.1c0.4,0.2,0.8,0.4,1.2,0.4c0.4,0.1,0.8,0.1,1.2,0.1
		c0.5,0,1-0.1,1.3-0.4c0.4-0.2,0.6-0.6,0.6-1.1c0-0.2,0-0.3-0.1-0.5c-0.1-0.2-0.1-0.3-0.3-0.4c-0.1-0.1-0.3-0.3-0.5-0.4
		c-0.2-0.1-0.5-0.2-0.8-0.3l-0.9-0.3c-0.7-0.2-1.2-0.5-1.5-0.9c-0.4-0.4-0.5-0.9-0.5-1.5c0-0.8,0.3-1.4,0.8-1.9
		C229.7,232.9,230.5,232.7,231.5,232.7"/>
	<path class="st0" d="M241.5,232.8h1.2l3.6,9.1h-1.4l-1-2.5h-3.7l-1,2.5h-1.4L241.5,232.8z M240.5,238.4h3l-0.6-1.6
		c-0.2-0.4-0.3-0.8-0.4-1.2c-0.1-0.4-0.3-0.8-0.4-1.2h0c-0.1,0.4-0.3,0.8-0.4,1.2s-0.3,0.8-0.5,1.2L240.5,238.4z"/>
	<path class="st0" d="M250.4,232.8h1.2l4.1,5.8c0.2,0.2,0.3,0.4,0.4,0.6c0.1,0.2,0.3,0.4,0.4,0.6h0c0-0.3,0-0.7,0-1c0-0.3,0-0.7,0-1
		v-5h1.3v9.1h-1.2l-4.1-5.7c-0.1-0.2-0.3-0.4-0.4-0.7c-0.2-0.3-0.3-0.5-0.4-0.8h0c0,0.4,0,0.8,0,1.2c0,0.4,0,0.8,0,1.2v4.7h-1.3
		V232.8z"/>
	<path class="st0" d="M267,241c0.5,0,0.9,0,1.2-0.1c0.3-0.1,0.6-0.2,0.9-0.3l0.3,1.1c-0.3,0.2-0.7,0.3-1.1,0.4
		c-0.4,0.1-0.9,0.1-1.5,0.1c-0.6,0-1.2-0.1-1.7-0.3c-0.5-0.2-1-0.5-1.4-0.9c-0.4-0.4-0.7-0.9-0.9-1.5c-0.2-0.6-0.3-1.3-0.3-2
		c0-0.7,0.1-1.4,0.3-2c0.2-0.6,0.5-1.1,0.9-1.5c0.4-0.4,0.9-0.7,1.4-0.9c0.5-0.2,1.1-0.3,1.8-0.3c0.6,0,1.1,0,1.5,0.1
		c0.4,0.1,0.7,0.2,1.1,0.4l-0.3,1c-0.2-0.1-0.4-0.1-0.5-0.2c-0.2-0.1-0.3-0.1-0.5-0.2c-0.2,0-0.3-0.1-0.5-0.1c-0.2,0-0.4,0-0.6,0
		c-0.4,0-0.8,0.1-1.2,0.2c-0.4,0.1-0.7,0.3-1,0.6s-0.5,0.7-0.7,1.1c-0.2,0.5-0.3,1-0.3,1.7c0,0.7,0.1,1.2,0.2,1.7
		c0.2,0.5,0.4,0.8,0.7,1.1c0.3,0.3,0.6,0.5,1,0.6C266.1,240.9,266.5,241,267,241"/>
	<polygon class="st0" points="273.8,232.8 279.3,232.8 279.3,233.9 275.1,233.9 275.1,236.7 278.9,236.7 278.9,237.7 275.1,237.7 
		275.1,240.8 279.3,240.8 279.3,241.9 273.8,241.9 	"/>
	<path class="st0" d="M213,100.5c0.9-2.6,1-5.2,0.2-7.9c-1.4-4.8-5.2-6.7-9.9-7.7c-5.1-1.1-10.2-0.6-15.3-0.6
		c-1.2,0-1.3,0.7-1.3,1.6c0,3.4,0,6.8,0,10.2c0,3.5,0,6.9,0,10.4c0,1.2,0.4,1.5,1.6,1.5c4,0,8.1,0,12.1-0.3c2.8-0.2,5.6-0.8,8.1-2.1
		C210.6,104.4,212.3,102.7,213,100.5"/>
	<path class="st0" d="M129,169.8h107.8V69.2H129V169.8z M186.2,153.2c0,1.3,0,2.5,0,3.8c0,1.5-1.9,1.8-3.3,1.8
		c-3.8-0.1-8.8-0.2-12.7-0.2c-9.9,0-19.9,0.1-29.8,0.2c-2.1,0-2.8-0.9-2.8-2.1c0-1.3,0.7-2.3,1.9-2.4c1.3-0.1,2.5,0,3.8-0.1
		c2.1-0.1,2.9,0,3-2.1c0.1-2.6,0-4.2,0-6.8c0-5.3,0-10.7,0-16c0-7.5,0-34.4,0-41.8c0-3.7-0.5-4.3-4.3-4.8c-0.8-0.1-1.5-0.1-2.3-0.1
		c-0.8,0-1.4-0.3-1.3-1.2c0-0.9,0.5-1.2,1.4-1.1c3.7,0,7.4,0.1,11,0.1c3.6,0,7.1-0.1,10.7-0.1c0.9,0,1.7,0,1.7,1.2
		c0,1.2-0.9,1.2-1.7,1.2c-1.6,0-3.3,0-4.9,0.4c-1.6,0.3-2.4,1.1-2.5,2.7c0,0.7-0.1,1.5-0.1,2.2c0,15,0.1,48.4,0.1,63.4
		c0,2.3,0,2.3,2.4,2.3c6,0,14.9,0,20.9,0c1.5,0,3-0.4,3-1.6c0-1.3,0-3.9,0-3.9l0-1l3.1-3.8l2.9,3.8l0,1
		C186.2,147.9,186.2,150.4,186.2,153.2 M230.6,154.6c-3.4,5-12,4.6-15.1-0.2c-1.8-3.3-3-5.7-3.7-10.2c-0.7-4.8-2.5-21.6-3.7-24.6
		c-2-5.2-5.9-7.9-11.8-8c-2.8,0-5.5,0-8.3,0c-1.1,0-1.4,0.5-1.4,1.4c0,6.9,0,16,0.1,22.8c0,2,0.8,1.7,2.5,1.7c3,0.1,7.4-0.1,11.2,0
		c1.7,0,2.2,1,2.3,2.3c0.1,1.3-1.1,2.3-1.9,2.2c-8.6-0.3-27.4-0.3-35.9,0c-0.8,0-1.5-1.2-1.5-2.2c0-1.2,0.5-2.1,2.2-2.1
		c2.6,0,8.8-0.2,10.7-0.2c2.1,0,2.5-0.2,2.6-1.7c0-0.8,0-6.9,0-7.7c0-14.1,0-25,0-39.1c0-0.7,0-1.4,0-2c-0.1-2.1-1-3-3.2-3.3
		c-1-0.1-2-0.2-3-0.3c-0.8,0-1.4-0.2-1.4-1.1c0-1,0.5-1.3,1.4-1.3c3.4-0.2,6.7-0.5,10.1-0.5c6.7-0.1,13.5-0.5,20.2,0.2
		c4,0.5,8,1.2,11.5,3.2c4.4,2.4,6.5,6.1,6.9,10.8c0.1,1.5,0.1,3-0.1,4.5c-0.8,5.1-4,8.4-9,10.2c-1.6,0.6-3.2,1-5,1.5
		c9.2,5,8.6,11.1,10.8,29.5c0.6,5.3,1.7,9.6,4.5,12.8c1.8,2.3,4.3,2.4,6.3,0.3c0.4-0.5,0.7-1.5,1.7-0.7
		C231.6,153.4,231,154,230.6,154.6"/>
	<path class="st0" d="M240,172.8H125.7V66.1H240V172.8z M243.1,63H240H125.7h-3.1v3.1v106.7v3.1h3.1H240h3.1v-3.1V66.1V63z"/>
</g>
</svg>
