<?xml version="1.0" encoding="utf-8"?>
<!-- Generator: Adobe Illustrator 26.3.1, SVG Export Plug-In . SVG Version: 6.00 Build 0)  -->
<svg version="1.1" id="레이어_1" xmlns="http://www.w3.org/2000/svg" xmlns:xlink="http://www.w3.org/1999/xlink" x="0px"
	 y="0px" viewBox="0 0 366.2 305.1" style="enable-background:new 0 0 366.2 305.1;" xml:space="preserve">
<style type="text/css">
	.st0{fill:#FFFFFF;}
</style>
<g>
	<g>
		<g>
			<path class="st0" d="M105.4,221.8c3.5-2.6,5.8-6.7,5.8-11.3c0-4.6-2.3-8.8-5.8-11.3c-1.4-1-3-1.8-4.7-2.3
				c-1.1-0.3-2.3-0.5-3.5-0.5H69.4V238h10.5v-13.5h13.8l8.4,13.5h12.2l-9.8-15.7C104.9,222.1,105.1,222,105.4,221.8z M95.3,215.8
				H79.9v-10.7h15.4c3,0,5.4,2.4,5.4,5.4C100.7,213.4,98.3,215.8,95.3,215.8z"/>
			<path class="st0" d="M291,199.2c-1.4-1-3-1.8-4.7-2.3c-1.1-0.3-2.3-0.5-3.5-0.5h-27.8V238h10.5v-13.5h17.3c1.2,0,2.4-0.2,3.5-0.5
				c1.7-0.5,3.3-1.2,4.7-2.3c3.5-2.6,5.8-6.7,5.8-11.3C296.7,205.8,294.5,201.7,291,199.2z M280.9,215.8h-15.5v-10.7h15.5
				c3,0,5.4,2.4,5.4,5.4C286.2,213.4,283.8,215.8,280.9,215.8z"/>
			<polygon class="st0" points="191.7,220.7 174.2,196.4 163.7,196.4 163.7,238 174.2,238 174.2,213.8 191.7,238 202.2,238 
				202.2,196.4 191.7,196.4 			"/>
			<path class="st0" d="M146.9,220.5c0,4.8-3.9,8.7-8.7,8.7c-4.8,0-8.7-3.9-8.7-8.7c0,0,0,0,0,0c0,0,0,0,0,0v-24.1h-10.5v24.1
				c0,3.9,1.2,7.5,3.1,10.5c1.8,2.8,4.4,5.1,7.4,6.6c2.6,1.3,5.6,2.1,8.7,2.1c3.2,0,6.1-0.8,8.7-2.1c3-1.5,5.5-3.8,7.4-6.6
				c2-3,3.1-6.6,3.1-10.5v-24.1h-10.5V220.5z"/>
			<path class="st0" d="M236.5,220.5c0,4.8-3.9,8.7-8.7,8.7c-4.8,0-8.7-3.9-8.7-8.7c0,0,0,0,0,0c0,0,0,0,0,0v-24.1h-10.5v24.1
				c0,3.9,1.2,7.5,3.1,10.5c1.8,2.8,4.4,5.1,7.4,6.6c2.6,1.3,5.6,2.1,8.7,2.1c3.2,0,6.1-0.8,8.7-2.1c3-1.5,5.5-3.8,7.4-6.6
				c2-3,3.1-6.6,3.1-10.5v-24.1h-10.5V220.5z"/>
		</g>
		<path class="st0" d="M232.6,174.1h-41.6c-15.9,0-28.8-12.9-28.8-28.8c0-11.1,6.3-20.8,15.5-25.6l27.8-14.2
			c2.7-1.7,4.6-4.7,4.6-8.2c0-2.6-1.1-5-2.8-6.8c-1.7-1.7-4.1-2.8-6.8-2.8h-44.8v86.3h-22.4V65.4h67.1c17.7,0,32,14.3,32,32
			c0,12.7-7.4,23.6-18,28.8L188,139.7c-2,1.1-3.3,3.2-3.3,5.6c0,3.5,2.9,6.4,6.4,6.4h41.6V174.1z"/>
	</g>
</g>
</svg>
