<svg width="49" height="54" viewBox="0 0 49 54" fill="none" xmlns="http://www.w3.org/2000/svg">
<path d="M15.8627 9.3142C16.8913 8.82135 17.9834 8.42492 19.1286 8.11421C19.1604 8.11421 19.2028 8.09278 19.2346 8.08207C20.0405 7.86778 20.857 7.68564 21.7052 7.56778C26.7949 6.84993 31.418 8.54278 35.882 10.1821C36.497 10.4071 37.1014 10.6321 37.7164 10.8463C38.4163 11.0928 39.1797 11.4356 39.9856 11.7892L40.1976 11.8856C41.5125 12.4642 44.0891 13.5678 44.6617 13.1713C45.0752 12.8285 45.4463 12.4213 45.7962 11.9606C46.8672 10.5571 47.6943 8.70349 48.5531 6.76422L48.7016 6.43207C48.744 6.34636 48.7864 6.24993 48.8288 6.1535L44.1527 3.20709C44.0891 3.32495 44.0149 3.45352 43.9406 3.5928C42.5834 5.98208 40.749 5.06065 40.0598 4.70708C39.975 4.66423 39.8901 4.62137 39.8053 4.57851C36.0517 2.83209 32.8495 1.62138 29.7426 0.77496C22.5429 -1.19646 15.0675 0.635675 9.22499 5.78922C7.45422 7.3535 5.91672 9.15349 4.6231 11.1356C1.77077 15.5285 0.137845 20.7999 0 26.3713V27.6355C0.137845 32.9819 1.64353 38.0391 4.28379 42.314C5.64103 44.5105 7.29517 46.5033 9.21439 48.2069C9.72335 48.6569 10.2535 49.0747 10.7943 49.4819C16.3717 53.6497 23.1685 55.0211 29.732 53.2318C32.8389 52.3747 36.0411 51.1747 39.7947 49.4283C39.8795 49.3854 39.9644 49.3426 40.0492 49.2997C40.7384 48.9461 42.5728 48.0247 43.93 50.414C44.0043 50.5533 44.0785 50.6819 44.1421 50.7997L48.8182 47.8533C48.7758 47.7569 48.7228 47.6604 48.691 47.5747L48.5425 47.2426C47.6837 45.3033 46.8566 43.439 45.7856 42.0462C45.4357 41.5855 45.0646 41.1783 44.6511 40.8355C44.0785 40.4391 41.4913 41.5426 40.187 42.1212L39.975 42.2176C39.8795 42.2605 39.7947 42.2926 39.6993 42.3355C39.6887 42.314 39.6675 42.2926 39.6569 42.2712C39.3494 41.6712 39.3706 40.9855 39.2857 40.3319C39.2221 39.8176 39.0843 39.3355 38.8192 38.8855C38.4375 38.2212 37.8967 37.6962 37.3241 37.2141C38.0027 36.0462 38.8086 34.5248 38.3738 33.1534C38.1936 32.5855 37.8225 32.1355 37.3983 31.7284C37.0908 31.4177 36.7621 31.1284 36.4334 30.8284L36.4016 30.7962C35.2458 29.6498 34.6096 28.2355 34.4718 26.5963C34.4082 25.8784 34.2385 25.3748 33.6129 24.957C33.4645 24.8606 33.316 24.7748 33.157 24.6998C31.3226 23.5641 32.086 21.0784 32.0436 19.2892C32.0224 18.507 31.8633 17.7463 31.3544 17.1356C30.6121 16.257 29.5942 15.5285 28.5657 15.0356C28.5657 14.907 28.5551 14.7785 28.5339 14.6499C28.3854 13.6963 27.7916 12.8392 27.0918 12.207C26.8903 12.0249 26.6464 11.7892 26.3814 11.7035C26.2117 11.6392 26.0633 11.8213 26.0951 11.982C26.1799 12.3463 26.2647 12.9463 26.2541 13.3749C25.9572 13.632 24.547 14.5106 22.2142 13.7392C22.193 13.7392 22.1824 13.7392 22.1718 13.7392C21.9809 13.5249 21.7264 13.3749 21.4508 13.2892C21.2705 13.2356 21.0902 13.2035 20.8994 13.2035C20.6767 13.2035 20.4328 13.2035 20.2102 13.2892C20.1783 13.2678 20.1571 13.2356 20.1253 13.2142C19.8178 12.9463 19.6164 12.6463 19.6058 12.2178C19.6058 11.982 19.3089 11.907 19.1816 12.0999C18.7999 12.6678 18.2803 13.182 17.9834 13.8035C17.9622 13.7928 17.941 13.782 17.9198 13.7713C16.5414 13.482 16.0854 15.5713 15.9688 16.5463C15.8521 17.457 15.884 18.3999 15.6931 19.2999C15.6189 19.6534 15.5234 20.1142 15.2265 20.3713C14.6327 20.8749 14.0708 20.0392 13.8057 19.5999C13.689 19.3963 13.3921 19.4927 13.3815 19.7177C13.3391 20.8963 13.6784 22.0749 14.6009 22.857C15.1523 23.3284 15.937 23.7034 16.6792 23.6713C17.2942 23.6498 17.6971 23.2748 17.941 22.782C18.0046 23.2856 17.7502 23.832 17.6441 24.3141C17.5169 24.8606 17.5487 25.4927 17.9728 25.9106C18.0364 25.9748 18.1001 25.9855 18.1743 25.9641C17.9198 26.382 17.6229 26.757 17.2836 27.1427C16.8383 27.6463 16.5944 28.1713 16.7004 28.857C16.7322 29.0927 16.8065 29.3391 16.8807 29.5962V29.6177C16.8807 29.6177 16.8913 29.6391 16.9019 29.6498C17.0397 30.0677 17.2306 30.4748 17.4427 30.7962C17.6865 31.1605 17.994 31.3962 18.3333 31.5355C18.3333 32.5427 19.1286 33.4748 20.0829 33.6891C20.6555 33.8177 21.2281 33.7534 21.7052 33.4855C21.7052 33.4855 22.8716 33.1855 23.6139 32.0712C24.3561 30.957 25.0559 31.2677 26.0102 29.2962C26.1799 28.9641 26.2753 28.8141 26.3177 28.8141C26.1057 29.532 26.2011 29.907 25.2362 30.9784C25.0559 31.1712 24.2289 31.7284 24.1334 32.007C24.038 32.2748 23.0625 34.1177 21.737 34.3212C21.737 34.3212 21.8431 36.2819 21.2493 37.5248C21.2281 37.5569 21.1963 37.5891 21.1751 37.6212C21.0902 37.7069 21.0266 37.8033 20.9736 37.8998C20.3798 38.6391 19.6164 39.2391 19.1498 40.0748C18.9589 40.4069 18.8847 40.7605 18.8847 41.114H18.8635C17.6653 41.6712 17.2942 43.3105 17.4108 44.564C15.7673 44.1033 14.1132 43.4605 12.459 42.5926C11.7168 42.0355 11.017 41.4355 10.3702 40.7819C6.89223 37.2355 4.86698 32.3819 4.99422 27.0034C4.85637 21.6249 6.89223 16.7606 10.3702 13.2249C11.9289 11.6392 13.7845 10.3106 15.8733 9.32492L15.8627 9.3142ZM36.0729 4.44994C37.2499 4.44994 38.1936 5.41422 38.1936 6.59279C38.1936 7.77135 37.2393 8.73563 36.0729 8.73563C34.9065 8.73563 33.9522 7.77135 33.9522 6.59279C33.9522 5.41422 34.9065 4.44994 36.0729 4.44994V4.44994ZM23.0731 1.74996C24.2501 1.74996 25.2044 2.71424 25.2044 3.90352C25.2044 5.0928 24.2501 6.05708 23.0731 6.05708C21.8961 6.05708 20.9418 5.0928 20.9418 3.90352C20.9418 2.71424 21.8961 1.74996 23.0731 1.74996V1.74996ZM36.0729 45.2605C37.2499 45.2605 38.1936 46.2247 38.1936 47.4033C38.1936 48.5819 37.2393 49.5462 36.0729 49.5462C34.9065 49.5462 33.9522 48.5819 33.9522 47.4033C33.9522 46.2247 34.9065 45.2605 36.0729 45.2605ZM23.0731 47.939C24.2501 47.939 25.2044 48.9033 25.2044 50.0926C25.2044 51.2819 24.2501 52.2461 23.0731 52.2461C21.8961 52.2461 20.9418 51.2819 20.9418 50.0926C20.9418 48.9033 21.8961 47.939 23.0731 47.939ZM11.2396 43.4497C11.2396 43.4497 11.2927 43.4497 11.3139 43.4497C11.4835 43.4497 11.6426 43.4712 11.8016 43.514C11.9501 43.5462 12.0773 43.5997 12.2152 43.664C12.8938 43.9962 13.3603 44.6926 13.3603 45.5069C13.3603 45.9997 13.1801 46.4497 12.8832 46.814C12.5121 47.2747 11.9501 47.564 11.3139 47.564C10.1899 47.564 9.27801 46.6426 9.27801 45.5069C9.27801 44.3712 10.1475 43.5033 11.2396 43.4605V43.4497ZM9.28861 8.49992C9.28861 7.36421 10.2005 6.44279 11.3245 6.44279C12.4484 6.44279 13.3603 7.36421 13.3603 8.49992C13.3603 9.63563 12.4484 10.5571 11.3245 10.5571C10.2005 10.5571 9.28861 9.63563 9.28861 8.49992Z" fill="black"/>
</svg>
