<svg width="233" height="54" viewBox="0 0 233 54" fill="none" xmlns="http://www.w3.org/2000/svg">
<path d="M15.8627 9.3142C16.8913 8.82135 17.9834 8.42492 19.1286 8.11421C19.1604 8.11421 19.2028 8.09278 19.2346 8.08207C20.0405 7.86778 20.857 7.68564 21.7052 7.56778C26.7949 6.84993 31.418 8.54278 35.882 10.1821C36.497 10.4071 37.1014 10.6321 37.7164 10.8463C38.4163 11.0928 39.1797 11.4356 39.9856 11.7892L40.1976 11.8856C41.5125 12.4642 44.0891 13.5678 44.6617 13.1713C45.0752 12.8285 45.4463 12.4213 45.7962 11.9606C46.8672 10.5571 47.6943 8.70349 48.5531 6.76422L48.7016 6.43207C48.744 6.34636 48.7864 6.24993 48.8288 6.1535L44.1527 3.20709C44.0891 3.32495 44.0149 3.45352 43.9406 3.5928C42.5834 5.98208 40.749 5.06065 40.0598 4.70708C39.975 4.66423 39.8901 4.62137 39.8053 4.57851C36.0517 2.83209 32.8495 1.62138 29.7426 0.77496C22.5429 -1.19646 15.0675 0.635675 9.22499 5.78922C7.45422 7.3535 5.91672 9.15349 4.6231 11.1356C1.77077 15.5285 0.137845 20.7999 0 26.3713V27.6355C0.137845 32.9819 1.64353 38.0391 4.28379 42.314C5.64103 44.5105 7.29517 46.5033 9.21439 48.2069C9.72335 48.6569 10.2535 49.0747 10.7943 49.4819C16.3717 53.6497 23.1685 55.0211 29.732 53.2318C32.8389 52.3747 36.0411 51.1747 39.7947 49.4283C39.8795 49.3854 39.9644 49.3426 40.0492 49.2997C40.7384 48.9461 42.5728 48.0247 43.93 50.414C44.0043 50.5533 44.0785 50.6819 44.1421 50.7997L48.8182 47.8533C48.7758 47.7569 48.7228 47.6604 48.691 47.5747L48.5425 47.2426C47.6837 45.3033 46.8566 43.439 45.7856 42.0462C45.4357 41.5855 45.0646 41.1783 44.6511 40.8355C44.0785 40.4391 41.4913 41.5426 40.187 42.1212L39.975 42.2176C39.8795 42.2605 39.7947 42.2926 39.6993 42.3355C39.6887 42.314 39.6675 42.2926 39.6569 42.2712C39.3494 41.6712 39.3706 40.9855 39.2857 40.3319C39.2221 39.8176 39.0843 39.3355 38.8192 38.8855C38.4375 38.2212 37.8967 37.6962 37.3241 37.2141C38.0027 36.0462 38.8086 34.5248 38.3738 33.1534C38.1936 32.5855 37.8225 32.1355 37.3983 31.7284C37.0908 31.4177 36.7621 31.1284 36.4334 30.8284L36.4016 30.7962C35.2458 29.6498 34.6096 28.2355 34.4718 26.5963C34.4082 25.8784 34.2385 25.3748 33.6129 24.957C33.4645 24.8606 33.316 24.7748 33.157 24.6998C31.3226 23.5641 32.086 21.0784 32.0436 19.2892C32.0224 18.507 31.8633 17.7463 31.3544 17.1356C30.6121 16.257 29.5942 15.5285 28.5657 15.0356C28.5657 14.907 28.5551 14.7785 28.5339 14.6499C28.3854 13.6963 27.7916 12.8392 27.0918 12.207C26.8903 12.0249 26.6464 11.7892 26.3814 11.7035C26.2117 11.6392 26.0633 11.8213 26.0951 11.982C26.1799 12.3463 26.2647 12.9463 26.2541 13.3749C25.9572 13.632 24.547 14.5106 22.2142 13.7392C22.193 13.7392 22.1824 13.7392 22.1718 13.7392C21.9809 13.5249 21.7264 13.3749 21.4508 13.2892C21.2705 13.2356 21.0902 13.2035 20.8994 13.2035C20.6767 13.2035 20.4328 13.2035 20.2102 13.2892C20.1783 13.2678 20.1571 13.2356 20.1253 13.2142C19.8178 12.9463 19.6164 12.6463 19.6058 12.2178C19.6058 11.982 19.3089 11.907 19.1816 12.0999C18.7999 12.6678 18.2803 13.182 17.9834 13.8035C17.9622 13.7928 17.941 13.782 17.9198 13.7713C16.5414 13.482 16.0854 15.5713 15.9688 16.5463C15.8521 17.457 15.884 18.3999 15.6931 19.2999C15.6189 19.6534 15.5234 20.1142 15.2265 20.3713C14.6327 20.8749 14.0708 20.0392 13.8057 19.5999C13.689 19.3963 13.3921 19.4927 13.3815 19.7177C13.3391 20.8963 13.6784 22.0749 14.6009 22.857C15.1523 23.3284 15.937 23.7034 16.6792 23.6713C17.2942 23.6498 17.6971 23.2748 17.941 22.782C18.0046 23.2856 17.7502 23.832 17.6441 24.3141C17.5169 24.8606 17.5487 25.4927 17.9728 25.9106C18.0364 25.9748 18.1001 25.9855 18.1743 25.9641C17.9198 26.382 17.6229 26.757 17.2836 27.1427C16.8383 27.6463 16.5944 28.1713 16.7004 28.857C16.7322 29.0927 16.8065 29.3391 16.8807 29.5962V29.6177C16.8807 29.6177 16.8913 29.6391 16.9019 29.6498C17.0397 30.0677 17.2306 30.4748 17.4427 30.7962C17.6865 31.1605 17.994 31.3962 18.3333 31.5355C18.3333 32.5427 19.1286 33.4748 20.0829 33.6891C20.6555 33.8177 21.2281 33.7534 21.7052 33.4855C21.7052 33.4855 22.8716 33.1855 23.6139 32.0712C24.3561 30.957 25.0559 31.2677 26.0102 29.2962C26.1799 28.9641 26.2753 28.8141 26.3177 28.8141C26.1057 29.532 26.2011 29.907 25.2362 30.9784C25.0559 31.1712 24.2289 31.7284 24.1334 32.007C24.038 32.2748 23.0625 34.1177 21.737 34.3212C21.737 34.3212 21.8431 36.2819 21.2493 37.5248C21.2281 37.5569 21.1963 37.5891 21.1751 37.6212C21.0902 37.7069 21.0266 37.8033 20.9736 37.8998C20.3798 38.6391 19.6164 39.2391 19.1498 40.0748C18.9589 40.4069 18.8847 40.7605 18.8847 41.114H18.8635C17.6653 41.6712 17.2942 43.3105 17.4108 44.564C15.7673 44.1033 14.1132 43.4605 12.459 42.5926C11.7168 42.0355 11.017 41.4355 10.3702 40.7819C6.89223 37.2355 4.86698 32.3819 4.99422 27.0034C4.85637 21.6249 6.89223 16.7606 10.3702 13.2249C11.9289 11.6392 13.7845 10.3106 15.8733 9.32492L15.8627 9.3142ZM36.0729 4.44994C37.2499 4.44994 38.1936 5.41422 38.1936 6.59279C38.1936 7.77135 37.2393 8.73563 36.0729 8.73563C34.9065 8.73563 33.9522 7.77135 33.9522 6.59279C33.9522 5.41422 34.9065 4.44994 36.0729 4.44994V4.44994ZM23.0731 1.74996C24.2501 1.74996 25.2044 2.71424 25.2044 3.90352C25.2044 5.0928 24.2501 6.05708 23.0731 6.05708C21.8961 6.05708 20.9418 5.0928 20.9418 3.90352C20.9418 2.71424 21.8961 1.74996 23.0731 1.74996V1.74996ZM36.0729 45.2605C37.2499 45.2605 38.1936 46.2247 38.1936 47.4033C38.1936 48.5819 37.2393 49.5462 36.0729 49.5462C34.9065 49.5462 33.9522 48.5819 33.9522 47.4033C33.9522 46.2247 34.9065 45.2605 36.0729 45.2605ZM23.0731 47.939C24.2501 47.939 25.2044 48.9033 25.2044 50.0926C25.2044 51.2819 24.2501 52.2461 23.0731 52.2461C21.8961 52.2461 20.9418 51.2819 20.9418 50.0926C20.9418 48.9033 21.8961 47.939 23.0731 47.939ZM11.2396 43.4497C11.2396 43.4497 11.2927 43.4497 11.3139 43.4497C11.4835 43.4497 11.6426 43.4712 11.8016 43.514C11.9501 43.5462 12.0773 43.5997 12.2152 43.664C12.8938 43.9962 13.3603 44.6926 13.3603 45.5069C13.3603 45.9997 13.1801 46.4497 12.8832 46.814C12.5121 47.2747 11.9501 47.564 11.3139 47.564C10.1899 47.564 9.27801 46.6426 9.27801 45.5069C9.27801 44.3712 10.1475 43.5033 11.2396 43.4605V43.4497ZM9.28861 8.49992C9.28861 7.36421 10.2005 6.44279 11.3245 6.44279C12.4484 6.44279 13.3603 7.36421 13.3603 8.49992C13.3603 9.63563 12.4484 10.5571 11.3245 10.5571C10.2005 10.5571 9.28861 9.63563 9.28861 8.49992Z" fill="white"/>
<path d="M72.9198 25.8888L73.2591 26.1352L75.8464 22.3424L75.4965 22.0638C75.2526 22.2352 75.0617 22.3317 74.9133 22.3317C74.7436 22.3317 74.3407 22.1388 73.7045 21.7638C72.3154 20.9388 71.0748 20.3709 69.9933 20.0495C68.9011 19.7281 67.6605 19.5674 66.2609 19.5674C62.4861 19.5674 59.6761 20.7888 57.8524 23.2209C56.686 24.7745 56.1028 26.5745 56.1028 28.6102C56.1028 30.0888 56.4209 31.4495 57.0571 32.7137C57.6509 33.8816 58.4461 34.8459 59.4429 35.6173C61.2136 36.9673 63.4934 37.6423 66.2927 37.6423C67.6923 37.6423 68.9223 37.4816 70.0039 37.1602C71.0748 36.8387 72.3154 36.2709 73.7151 35.4459C74.3513 35.0602 74.7542 34.8673 74.9239 34.8673C75.0617 34.8673 75.2632 34.953 75.5071 35.1352L75.857 34.8673L73.2697 31.0423L72.9304 31.3102C72.9622 31.578 72.9729 31.728 72.9729 31.7495C72.9729 32.178 72.4109 32.6923 71.2869 33.2709C69.8448 33.9995 68.4028 34.3745 66.9501 34.3745C65.1051 34.3745 63.5676 33.8816 62.3588 32.9066C60.9804 31.7923 60.2911 30.3673 60.2911 28.6209C60.2911 26.8745 60.9804 25.4602 62.3588 24.3459C63.5676 23.3602 65.0945 22.8674 66.9501 22.8674C68.2755 22.8674 69.5904 23.1674 70.9052 23.7781C72.2836 24.4102 72.9729 24.9888 72.9729 25.4924C72.9729 25.5352 72.9729 25.5995 72.9622 25.6959C72.9622 25.7281 72.941 25.8031 72.9304 25.9316L72.9198 25.8888Z" fill="white"/>
<path d="M93.7661 33.903C93.6071 34.0423 93.3526 34.1173 93.0345 34.1173H83.4278V21.5066C83.4278 21.1852 83.502 20.9388 83.6399 20.7673C83.7777 20.5959 84.0428 20.4566 84.4033 20.3602V19.9316H78.3381V20.3602C78.7093 20.4781 78.9637 20.6174 79.1016 20.7781C79.2394 20.9388 79.3137 21.1852 79.3137 21.5066V35.6816C79.3137 36.003 79.2394 36.2494 79.091 36.4208C78.9425 36.5923 78.688 36.7316 78.3381 36.828V37.2566H93.0239C93.3526 37.2566 93.5965 37.3316 93.7661 37.4708C93.9358 37.6101 94.0736 37.878 94.1691 38.2423H94.5826V33.1209H94.1691C94.0524 33.4959 93.9146 33.753 93.7555 33.903H93.7661Z" fill="white"/>
<path d="M96.3535 20.3602C96.7246 20.478 96.9791 20.6173 97.117 20.778C97.2548 20.9387 97.329 21.1852 97.329 21.5066V35.6815C97.329 36.003 97.2548 36.2494 97.1064 36.4208C96.9579 36.5922 96.7034 36.7315 96.3535 36.828V37.2565H102.419V36.828C102.048 36.7101 101.793 36.5708 101.655 36.3994C101.517 36.228 101.443 35.9815 101.443 35.6601V21.4959C101.443 21.1745 101.517 20.928 101.655 20.7566C101.793 20.5852 102.058 20.4459 102.419 20.3495V19.9209H96.3535V20.3495V20.3602Z" fill="white"/>
<path d="M121.632 20.928C120.508 20.253 118.843 19.9209 116.627 19.9209H105.451V20.3495C105.822 20.4673 106.077 20.6066 106.215 20.7673C106.352 20.928 106.427 21.1745 106.427 21.4959V35.6708C106.427 35.9923 106.352 36.2387 106.204 36.4101C106.056 36.5815 105.801 36.7208 105.451 36.8172V37.2458H111.516V36.8172C111.145 36.6994 110.891 36.5601 110.753 36.3887C110.604 36.2172 110.541 35.9708 110.541 35.6601V30.1316H116.638C119.034 30.1316 120.816 29.7137 121.982 28.8673C123.148 28.0209 123.732 26.7459 123.732 25.0209C123.732 24.1209 123.551 23.3173 123.18 22.5887C122.809 21.8602 122.3 21.3137 121.653 20.9173L121.632 20.928ZM118.61 26.6816C118.197 26.8852 117.444 26.9923 116.373 26.9923H110.52V23.0602H116.373C117.454 23.0602 118.197 23.1673 118.61 23.3709C119.225 23.6709 119.533 24.2173 119.533 25.0316C119.533 25.8459 119.225 26.3923 118.61 26.6923V26.6816Z" fill="white"/>
<path d="M150.166 25.8888L150.505 26.1352L153.092 22.3424L152.743 22.0638C152.499 22.2352 152.308 22.3317 152.159 22.3317C151.99 22.3317 151.587 22.1388 150.951 21.7638C149.562 20.9388 148.321 20.3709 147.239 20.0495C146.147 19.7281 144.907 19.5674 143.507 19.5674C139.732 19.5674 136.922 20.7888 135.098 23.2209C133.932 24.7745 133.349 26.5745 133.349 28.6102C133.349 30.0888 133.667 31.4495 134.303 32.7137C134.897 33.8816 135.692 34.8459 136.689 35.6173C138.46 36.9673 140.739 37.6423 143.539 37.6423C144.938 37.6423 146.168 37.4816 147.25 37.1602C148.321 36.8387 149.562 36.2709 150.961 35.4459C151.597 35.0602 152 34.8673 152.17 34.8673C152.308 34.8673 152.509 34.953 152.753 35.1352L153.103 34.8673L150.516 31.0423L150.177 31.3102C150.208 31.578 150.219 31.728 150.219 31.7495C150.219 32.178 149.657 32.6923 148.533 33.2709C147.091 33.9995 145.649 34.3745 144.196 34.3745C142.351 34.3745 140.814 33.8816 139.605 32.9066C138.226 31.7923 137.537 30.3673 137.537 28.6209C137.537 26.8745 138.226 25.4602 139.605 24.3459C140.814 23.3602 142.341 22.8674 144.196 22.8674C145.522 22.8674 146.836 23.1674 148.151 23.7781C149.53 24.4102 150.219 24.9888 150.219 25.4924C150.219 25.5352 150.219 25.5995 150.208 25.6959C150.208 25.7281 150.187 25.8031 150.177 25.9316L150.166 25.8888Z" fill="white"/>
<path d="M171.012 33.903C170.853 34.0423 170.609 34.1173 170.281 34.1173H160.674V21.5066C160.674 21.1852 160.748 20.9388 160.886 20.7673C161.024 20.5959 161.289 20.4566 161.649 20.3602V19.9316H155.584V20.3602C155.955 20.4781 156.21 20.6174 156.348 20.7781C156.486 20.9388 156.56 21.1852 156.56 21.5066V35.6816C156.56 36.003 156.486 36.2494 156.337 36.4208C156.189 36.5923 155.934 36.7316 155.584 36.828V37.2566H170.27C170.599 37.2566 170.843 37.3316 171.012 37.4708C171.182 37.6101 171.32 37.878 171.415 38.2423H171.829V33.1209H171.415C171.299 33.4959 171.161 33.753 171.002 33.903H171.012Z" fill="white"/>
<path d="M190.077 21.6566C188.253 20.2531 185.984 19.5566 183.259 19.5566C180.566 19.5888 178.307 20.2852 176.494 21.6566C174.31 23.3173 173.218 25.6316 173.218 28.5887C173.218 31.5459 174.31 33.828 176.494 35.5208C178.297 36.9244 180.555 37.6208 183.28 37.6208C186.005 37.6208 188.274 36.9244 190.066 35.5208C192.24 33.828 193.332 31.5673 193.332 28.728C193.332 25.7066 192.24 23.3495 190.066 21.6566H190.077ZM187.606 32.6173C186.493 33.7744 185.051 34.353 183.28 34.353C181.509 34.353 180.057 33.7744 178.943 32.6173C177.915 31.5459 177.395 30.2066 177.395 28.5887C177.395 26.9709 177.915 25.6209 178.943 24.5495C180.057 23.4031 181.499 22.8352 183.27 22.8352C185.04 22.8566 186.482 23.4245 187.606 24.5495C188.635 25.5888 189.154 26.9602 189.154 28.6637C189.154 30.228 188.635 31.5459 187.606 32.6066V32.6173Z" fill="white"/>
<path d="M212.154 20.928C211.03 20.253 209.365 19.9209 207.149 19.9209H195.973V20.3495C196.344 20.4673 196.598 20.6066 196.736 20.7673C196.874 20.928 196.948 21.1745 196.948 21.4959V35.6708C196.948 35.9923 196.874 36.2387 196.726 36.4101C196.577 36.5815 196.323 36.7208 195.973 36.8172V37.2458H202.038V36.8172C201.667 36.6994 201.412 36.5601 201.275 36.3887C201.137 36.2172 201.063 35.9708 201.063 35.6601V30.1316H207.16C209.556 30.1316 211.337 29.7137 212.504 28.8673C213.67 28.0209 214.253 26.7459 214.253 25.0209C214.253 24.1209 214.073 23.3173 213.702 22.5887C213.331 21.8602 212.822 21.3137 212.175 20.9173L212.154 20.928ZM209.132 26.6816C208.718 26.8852 207.965 26.9923 206.894 26.9923H201.041V23.0602H206.894C207.976 23.0602 208.718 23.1673 209.132 23.3709C209.747 23.6709 210.054 24.2173 210.054 25.0316C210.054 25.8459 209.747 26.3923 209.132 26.6923V26.6816Z" fill="white"/>
<path d="M232.576 33.1319C232.459 33.4962 232.321 33.7534 232.162 33.9034C232.003 34.0534 231.759 34.1284 231.431 34.1284H222.725L232.841 20.6927V19.932H217.752C217.424 19.932 217.18 19.857 217.01 19.7177C216.84 19.5784 216.703 19.3106 216.607 18.9463H216.194V24.0677H216.607C216.724 23.6927 216.862 23.4356 217.021 23.2856C217.18 23.1463 217.424 23.0713 217.752 23.0713H226.065L216.077 36.3355V37.2676H231.452C231.781 37.2676 232.024 37.3426 232.194 37.4926C232.364 37.6426 232.491 37.8998 232.586 38.264H233V33.1426H232.586L232.576 33.1319Z" fill="white"/>
</svg>
