<svg width="24" height="24" viewBox="0 0 24 24" fill="none" xmlns="http://www.w3.org/2000/svg">
<path fill-rule="evenodd" clip-rule="evenodd" d="M16.6006 6.54844C15.3617 5.36678 13.7085 4.72304 11.998 4.7495C8.86787 4.7495 6.2095 6.86148 5.26165 9.70538C4.75907 11.1957 4.75907 12.8095 5.26164 14.2998H5.26604C6.2183 17.1393 8.87227 19.2513 12.0024 19.2513C13.6182 19.2513 15.0053 18.838 16.0804 18.1079V18.105C17.3456 17.2672 18.2097 15.9489 18.4786 14.4586H11.998V9.83774H23.3149C23.4559 10.6402 23.5221 11.4603 23.5221 12.276C23.5221 15.9257 22.2179 19.0114 19.9487 21.1013L19.9511 21.1032C17.9628 22.9374 15.2339 24 11.998 24C7.46152 24 3.31304 21.4427 1.27627 17.3906C-0.425428 14 -0.425424 10.0053 1.27628 6.61461C3.31305 2.55816 7.46152 0.000808636 11.998 0.000808636C14.9782 -0.0344648 17.857 1.08547 20.026 3.12251L16.6006 6.54844Z" fill="white"/>
</svg>
