<?xml version="1.0" encoding="utf-8"?>
<!-- Generator: Adobe Illustrator 26.3.1, SVG Export Plug-In . SVG Version: 6.00 Build 0)  -->
<svg version="1.1" id="레이어_1" xmlns="http://www.w3.org/2000/svg" xmlns:xlink="http://www.w3.org/1999/xlink" x="0px"
	 y="0px" viewBox="0 0 27 22" style="enable-background:new 0 0 27 22;" xml:space="preserve">
<style type="text/css">
	.st0{fill:#FFFFFF;}
</style>
<path class="st0" d="M27,2.6c-1,0.4-2.1,0.7-3.2,0.9c1.1-0.7,2-1.8,2.4-3.1C25.2,1,24,1.5,22.7,1.8c-1-1.1-2.4-1.8-4-1.8
	c-3.1,0-5.5,2.5-5.5,5.6c0,0.4,0.1,0.9,0.1,1.3C8.7,6.6,4.6,4.4,1.9,1C1.4,1.8,1.1,2.8,1.1,3.8c0,1.9,1,3.6,2.5,4.6
	c-0.9,0-1.8-0.3-2.5-0.7c0,0,0,0,0,0.1c0,2.7,1.9,4.9,4.4,5.4c-0.5,0.1-0.9,0.2-1.5,0.2c-0.4,0-0.7,0-1-0.1c0.7,2.2,2.8,3.8,5.2,3.9
	c-1.9,1.5-4.3,2.4-6.9,2.4c-0.4,0-0.9,0-1.3-0.1C2.4,21.1,5.4,22,8.5,22c10.2,0,15.8-8.5,15.8-15.8c0-0.2,0-0.5,0-0.7
	C25.3,4.7,26.3,3.7,27,2.6z"/>
</svg>
