<svg width="27" height="22" viewBox="0 0 27 22" fill="none" xmlns="http://www.w3.org/2000/svg">
<path d="M27 2.61124C26.0082 3.05526 24.9426 3.35127 23.8136 3.48871C24.9531 2.80154 25.8394 1.71264 26.2509 0.412302C25.1852 1.04661 23.993 1.51177 22.7268 1.75493C21.7245 0.676598 20.279 0 18.6858 0C15.626 0 13.1465 2.48438 13.1465 5.55022C13.1465 5.98366 13.1993 6.40654 13.2943 6.81884C8.68347 6.58626 4.60023 4.37674 1.86753 1.0149C1.39273 1.8395 1.11841 2.79097 1.11841 3.80586C1.11841 5.72994 2.09965 7.432 3.58734 8.42576C2.67995 8.39404 1.82532 8.15089 1.0762 7.72802C1.0762 7.74916 1.0762 7.7703 1.0762 7.80202C1.0762 10.4873 2.98593 12.7391 5.51817 13.2465C5.05393 13.3734 4.56858 13.4368 4.06213 13.4368C3.7034 13.4368 3.35522 13.4051 3.01759 13.3417C3.7245 15.5512 5.7714 17.1581 8.19812 17.2004C6.29895 18.691 3.91442 19.579 1.31887 19.579C0.875733 19.579 0.432591 19.5579 0 19.505C2.44783 21.0803 5.37046 22 8.49355 22C18.6858 22 24.2567 13.5425 24.2567 6.20567C24.2567 5.96252 24.2462 5.72994 24.2356 5.48679C25.3224 4.6939 26.2614 3.72129 27 2.61124Z" fill="white"/>
</svg>
